<?xml version="1.0" encoding="UTF-8"?>
<svg id="Layer_2" data-name="Layer 2" xmlns="http://www.w3.org/2000/svg" viewBox="0 0 929.8 929.8">
  <defs>
    <style>
      .cls-1 {
        fill: #143060;
      }

      .cls-1, .cls-2, .cls-3, .cls-4, .cls-5, .cls-6, .cls-7 {
        fill-rule: evenodd;
      }

      .cls-1, .cls-8, .cls-5, .cls-7, .cls-9 {
        stroke-miterlimit: 34.72;
      }

      .cls-1, .cls-7 {
        stroke: #fff;
      }

      .cls-1, .cls-9 {
        stroke-width: .86px;
      }

      .cls-2 {
        stroke-miterlimit: 30.57;
        stroke-width: 7.56px;
      }

      .cls-2, .cls-8, .cls-10 {
        stroke: #7b7979;
      }

      .cls-2, .cls-8, .cls-10, .cls-9 {
        fill: none;
      }

      .cls-3 {
        fill: #e32920;
      }

      .cls-11, .cls-4, .cls-7 {
        fill: #fff;
      }

      .cls-8 {
        stroke-linecap: round;
        stroke-width: 2.15px;
      }

      .cls-5 {
        stroke: #b4934c;
        stroke-width: .33px;
      }

      .cls-5, .cls-6 {
        fill: #b4934c;
      }

      .cls-10 {
        stroke-linejoin: round;
        stroke-width: 2.15px;
      }

      .cls-7 {
        stroke-width: 6.44px;
      }

      .cls-12 {
        fill: #7b7979;
      }

      .cls-9 {
        stroke: #231f20;
      }
    </style>
  </defs>
  <g id="Layer_2-2" data-name="Layer 2">
    <path id="path12" class="cls-2" d="M464.9,926.02C210.23,926.02,3.78,719.57,3.78,464.9S210.23,3.78,464.9,3.78h0c254.67,0,461.12,206.45,461.12,461.12s-206.45,461.12-461.12,461.12Z"/>
    <path id="path144" class="cls-12" d="M168.85,780.23l15.93-18.32,1.44,1.25c-2.58,3.94-4.17,7.47-4.78,10.59-.61,3.15-.31,6.31.88,9.47,1.17,3.17,2.95,5.79,5.35,7.88,2.71,2.35,5.67,3.47,8.88,3.36,3.21-.11,5.73-1.23,7.56-3.33,1.4-1.61,2.13-3.58,2.16-5.88.09-3.36-1.49-9.3-4.73-17.83-2.64-6.95-4.25-11.94-4.81-14.93-.58-2.99-.52-5.89.17-8.65.71-2.78,1.96-5.22,3.8-7.33,3.49-4.01,8.05-6.11,13.69-6.32,5.65-.19,10.91,1.83,15.81,6.08,1.55,1.35,2.88,2.72,4.03,4.14.7.82,1.96,2.76,3.79,5.77,1.81,3.03,3.07,4.85,3.75,5.44.65.57,1.33.81,2.06.76.71-.06,1.7-.63,2.95-1.7l1.44,1.25-15.79,18.16-1.44-1.25c2.62-4.39,4.17-8.03,4.67-10.92.49-2.88.11-5.97-1.16-9.27-1.27-3.28-3.31-6.16-6.13-8.6-3.25-2.83-6.57-4.21-9.96-4.14-3.38.09-6.08,1.29-8.12,3.64-1.14,1.31-1.91,2.93-2.37,4.87-.44,1.96-.39,4.16.12,6.62.33,1.67,1.67,5.73,3.99,12.22,2.33,6.48,3.78,11.3,4.39,14.47.6,3.19.59,6.11.01,8.79-.6,2.68-1.86,5.13-3.76,7.31-3.3,3.8-7.6,5.8-12.91,6.01-5.31.21-10.21-1.64-14.72-5.56-2.81-2.45-5.21-5.72-7.15-9.85-.89-1.92-1.65-3.14-2.23-3.65-.68-.59-1.41-.88-2.19-.85-.79.04-1.84.55-3.16,1.54l-1.44-1.25ZM186.26,694.87l1.46-1.23,19.34,23.05-1.46,1.23-1.6-1.91c-1.86-2.22-3.86-3.29-6-3.2-1.37.07-3.69,1.46-6.91,4.16l-34.75,29.16c-2.72,2.28-4.37,3.97-4.96,5.04-.44.83-.55,1.85-.34,3.06.34,1.7,1.05,3.18,2.12,4.45l1.6,1.91-1.48,1.24-19.34-23.05,1.48-1.24,1.64,1.95c1.84,2.19,3.83,3.25,5.96,3.17,1.41-.05,3.72-1.42,6.95-4.12l34.75-29.16c2.72-2.28,4.37-3.97,4.96-5.03.44-.83.54-1.86.31-3.1-.32-1.67-1-3.15-2.07-4.42l-1.64-1.95ZM115.61,709.65l23.53-14.7-8.17-13.08c-2.13-3.4-4.05-5.35-5.78-5.85-2.3-.69-5.2-.05-8.71,1.9l-1.01-1.62,20.72-12.95,1.01,1.62c-2.64,2.21-4.24,3.79-4.81,4.71-.69,1.16-.96,2.54-.79,4.1.16,1.56,1.02,3.59,2.57,6.08l8.17,13.08,19.63-12.27c2.64-1.65,4.17-2.77,4.59-3.35.42-.6.62-1.28.6-2.08-.04-.79-.57-2.02-1.59-3.65l-6.31-10.1c-2.1-3.36-3.86-5.67-5.28-6.89-1.42-1.24-3.24-2.12-5.5-2.67-2.95-.68-6.85-.83-11.7-.44l-1.1-1.75,18.13-4.2,28.67,45.89-1.62,1.01-1.32-2.11c-.87-1.39-2.05-2.51-3.51-3.35-1.05-.65-2.15-.84-3.3-.61-1.15.26-3.17,1.29-6.06,3.1l-38.68,24.17c-3.78,2.36-5.86,4.19-6.27,5.5-.51,1.78,0,3.9,1.53,6.36l1.32,2.11-1.63,1.02-28.67-45.89,12.63-8.81,1.08,1.72c-2.75,2.57-4.47,4.59-5.17,6.06-.7,1.48-.92,3.14-.61,4.99.3,1.44,1.36,3.65,3.21,6.6l10.21,16.33ZM81.57,665.66l-6.83-17.78,33.78-58.94-37.79,14.51c-4.02,1.55-6.37,2.98-7.02,4.25-.89,1.72-.84,3.86.14,6.44l.87,2.28-1.8.69-8.76-22.81,1.8-.69.89,2.33c1.06,2.77,2.66,4.41,4.77,4.93,1.31.31,3.79-.24,7.47-1.65l55.23-21.2.67,1.75-36.19,63.46,40.37-15.5c4.02-1.55,6.37-2.94,7.04-4.2.88-1.74.83-3.9-.14-6.44l-.89-2.31,1.78-.68,8.75,22.8-1.78.68-.87-2.26c-1.08-2.8-2.68-4.46-4.81-4.99-1.29-.32-3.79.24-7.45,1.65l-45.58,17.5c-1.5,2.75-2.41,4.77-2.75,6.01-.33,1.26-.44,2.95-.32,5.08.08,1.05.48,2.52,1.2,4.42l-1.8.69ZM60.38,625.74l3.41,8.89-12.48,15.31-.58-1.5,5.18-17.11-14.49-7.14-.56-1.45,19.51,3ZM35.73,503.22l24.1-2.96.23,1.89c-4.55,1.2-8.1,2.76-10.64,4.67-2.56,1.93-4.45,4.48-5.69,7.62-1.25,3.14-1.69,6.28-1.3,9.43.44,3.56,1.89,6.37,4.35,8.44,2.46,2.07,5.08,2.92,7.85,2.58,2.12-.26,3.98-1.24,5.53-2.92,2.32-2.44,5.12-7.91,8.42-16.42,2.69-6.94,4.83-11.72,6.41-14.32,1.57-2.61,3.55-4.73,5.92-6.32,2.39-1.59,4.95-2.57,7.73-2.91,5.28-.65,10.07.85,14.4,4.46,4.33,3.63,6.88,8.66,7.68,15.1.25,2.03.32,3.95.23,5.78-.03,1.07-.39,3.36-1.05,6.82-.68,3.47-.96,5.65-.85,6.55.11.86.45,1.49,1.02,1.94.57.43,1.68.67,3.33.71l.23,1.89-23.89,2.93-.23-1.89c4.89-1.51,8.48-3.18,10.78-4.99,2.29-1.81,4.07-4.36,5.34-7.67,1.25-3.29,1.66-6.79,1.2-10.49-.52-4.28-2.06-7.53-4.63-9.74-2.57-2.2-5.38-3.11-8.47-2.73-1.72.21-3.38.9-5.02,2.04-1.64,1.16-3.07,2.83-4.33,5-.87,1.46-2.6,5.38-5.22,11.75-2.6,6.37-4.75,10.93-6.42,13.7-1.69,2.77-3.65,4.93-5.87,6.54-2.24,1.59-4.81,2.57-7.69,2.92-5,.61-9.53-.77-13.62-4.17-4.08-3.4-6.49-8.05-7.22-13.98-.45-3.7-.04-7.74,1.27-12.1.62-2.02.88-3.44.78-4.21-.11-.89-.46-1.6-1.06-2.1-.61-.49-1.74-.82-3.38-.97l-.23-1.89ZM87.8,421.93l.43-1.7,18.83,6.67-1.9,54.32-1.91-.07.09-2.65c.1-2.97-.79-5.12-2.67-6.46-1.09-.76-3.64-1.21-7.63-1.35l-45.28-1.58c-4.38-.15-7.13.23-8.26,1.16-1.57,1.29-2.39,3.26-2.49,5.91l-.09,2.65-1.92-.07,1.11-31.77,1.92.07c-.17,3.72.08,6.35.75,7.88.67,1.53,1.55,2.58,2.65,3.17,1.08.59,3.71.96,7.88,1.11l44.08,1.54c2.86.1,4.83-.11,5.93-.62.74-.38,1.29-1,1.67-1.85.37-.85.64-3.53.79-8.05l.18-5.12c.19-5.39-.07-9.18-.79-11.38-.72-2.2-2.06-4.23-4.01-6.1-1.95-1.85-5.08-3.77-9.37-5.7h0ZM95.17,365.92l-6.57,26.37,9.6,7.29c2.35,1.81,4.18,2.86,5.5,3.19,1.03.26,2.06-.01,3.09-.79,1.04-.8,2.08-2.8,3.14-6.03l1.85.46-5.35,21.45-1.85-.46c.2-2.97,0-4.97-.59-6.01-1.17-2.11-3.97-4.81-8.38-8.12l-50.07-37.94.44-1.75,62.56-9.59c5.04-.77,8.42-1.76,10.16-2.98,1.74-1.22,3.06-3.21,3.92-5.94l1.85.46-6.7,26.88-1.85-.46c.54-2.74.53-4.69,0-5.85-.52-1.15-1.34-1.86-2.45-2.14-1.47-.37-3.96-.26-7.48.28l-10.82,1.67ZM91.1,366.4l-30.4,4.7,24.56,18.71,5.84-23.4ZM27.99,348l13.62,19.13-.43,1.71-16-9.6,2.8-11.25ZM92.68,246.56l1.75.81c-.65,2.44-.72,4.48-.24,6.13.77,2.37,2.44,4.94,4.99,7.69l43.8,47.45-.81,1.73-65.96-1.75c-3.39-.08-5.5-.03-6.37.19-1.34.31-2.54.92-3.62,1.82-1.09.88-2.14,2.26-3.21,4.12l-1.75-.81,12.12-25.99,1.75.81c-1.1,3.07-1.48,5.22-1.18,6.43.32,1.2,1.04,2.08,2.16,2.61,1.57.73,4.34,1.15,8.33,1.25l44.85,1.2-29.82-32.17c-2.95-3.17-5.12-5.08-6.53-5.74-.91-.43-1.99-.38-3.25.14-1.24.53-2.54,1.78-3.89,3.78-.11.14-.27.38-.52.73l-1.75-.81,9.15-19.62ZM134.82,191.04l15.41-19.03,1.5,1.21-.84,1.04c-.57.7-1.09,1.96-1.56,3.81-.46,1.83-.57,3.77-.31,5.8.26,2.03,1.04,4.92,2.35,8.64l10.06,29.92,13.69,11.09c3.35,2.71,5.74,4.03,7.19,3.96,1.95-.1,3.81-1.26,5.59-3.45l1.43-1.77,1.48,1.2-18.76,23.17-1.48-1.2,1.56-1.92c1.87-2.31,2.5-4.52,1.88-6.62-.37-1.28-2.1-3.16-5.15-5.63l-12.92-10.46-34.97-3.54c-4.1-.41-6.76-.56-7.94-.47-1.18.09-3.05.74-5.59,1.96-.71.31-1.47,1-2.29,2.01l-1.5-1.21,18.89-23.33,1.5,1.21-.98,1.21c-1.02,1.26-1.67,2.65-1.93,4.19-.28,1.55.19,2.79,1.37,3.75.96.78,3.36,1.38,7.21,1.77l26.81,2.86-8.16-24.32c-1.23-3.65-2.44-5.98-3.67-6.98-.76-.61-1.58-.96-2.5-1.04-.9-.09-1.81.1-2.73.54-.92.46-1.96,1.41-3.14,2.87l-1.5-1.21ZM215.84,112.7l14.95,19.13-1.5,1.17c-3.37-3.28-6.54-5.52-9.49-6.72-2.97-1.2-6.13-1.51-9.46-.95-3.34.55-6.25,1.79-8.76,3.75-2.83,2.21-4.49,4.9-4.99,8.07-.5,3.17.11,5.86,1.83,8.05,1.32,1.69,3.11,2.77,5.35,3.24,3.28.73,9.42.31,18.41-1.24,7.33-1.26,12.53-1.9,15.58-1.88,3.05,0,5.88.61,8.46,1.82,2.59,1.22,4.75,2.93,6.47,5.13,3.27,4.19,4.46,9.07,3.59,14.64-.89,5.58-3.88,10.36-8.99,14.35-1.62,1.26-3.22,2.31-4.83,3.17-.93.53-3.08,1.4-6.39,2.61-3.32,1.2-5.34,2.09-6.05,2.64-.68.53-1.05,1.15-1.14,1.87-.07.71.3,1.79,1.1,3.22l-1.5,1.18-14.82-18.96,1.5-1.17c3.81,3.41,7.09,5.63,9.83,6.67,2.73,1.03,5.84,1.24,9.33.63,3.46-.62,6.68-2.08,9.61-4.37,3.4-2.65,5.39-5.65,5.96-8.99.56-3.33-.1-6.22-2.02-8.67-1.07-1.36-2.51-2.44-4.33-3.25-1.84-.8-4.01-1.17-6.52-1.14-1.7,0-5.95.54-12.76,1.58-6.8,1.05-11.81,1.56-15.05,1.55-3.25-.02-6.11-.59-8.63-1.66-2.52-1.1-4.68-2.8-6.46-5.09-3.1-3.97-4.25-8.57-3.44-13.82.81-5.25,3.56-9.71,8.27-13.39,2.94-2.3,6.61-4.02,11.03-5.14,2.05-.5,3.4-1.02,4.01-1.5.71-.56,1.13-1.22,1.25-1.99.11-.78-.19-1.91-.91-3.4l1.5-1.17ZM314.08,116.94l1.7-.42,2.95,19.75-48.85,23.83-.84-1.72,2.38-1.16c2.67-1.3,4.15-3.1,4.45-5.39.16-1.32-.64-3.78-2.39-7.37l-19.86-40.72c-1.92-3.94-3.55-6.19-4.9-6.75-1.87-.78-4-.58-6.38.58l-2.38,1.16-.84-1.73,28.57-13.94.84,1.73c-3.37,1.6-5.57,3.05-6.6,4.36-1.03,1.31-1.55,2.58-1.55,3.83-.01,1.22.9,3.73,2.72,7.48l19.33,39.64c1.25,2.57,2.37,4.21,3.33,4.94.68.47,1.49.67,2.42.61.93-.08,3.42-1.1,7.48-3.08l4.61-2.25c4.84-2.36,8.07-4.37,9.68-6.04,1.61-1.67,2.76-3.81,3.5-6.41.72-2.59.94-6.26.64-10.95h0ZM344.18,50.91c8.81-2.36,17.33-1.08,25.57,3.89,8.25,4.96,13.7,12.43,16.38,22.43,2.76,10.31,1.79,19.73-2.89,28.27-4.68,8.55-11.64,14.06-20.87,16.53-9.32,2.5-18.06,1.27-26.19-3.65-8.13-4.94-13.6-12.67-16.43-23.2-2.89-10.77-1.57-20.53,3.93-29.3,4.8-7.62,11.63-12.59,20.49-14.97h0ZM344.22,54.79c-6.08,1.63-10.34,5.18-12.8,10.67-3.06,6.82-3.15,15.62-.25,26.43,2.97,11.08,7.62,18.96,13.95,23.65,4.85,3.57,10.26,4.55,16.23,2.95,6.37-1.71,10.96-5.61,13.77-11.68,2.82-6.08,2.8-14.47-.07-25.17-3.11-11.59-7.71-19.63-13.81-24.11-4.89-3.56-10.55-4.47-17.02-2.74ZM469.96,33.8l.13,1.92c-2.45.61-4.27,1.54-5.48,2.76-1.7,1.82-3.14,4.52-4.3,8.1l-20.26,61.31-1.9.13-30.45-58.54c-1.57-3.01-2.64-4.83-3.25-5.48-.92-1.02-2.04-1.77-3.35-2.28-1.3-.53-3.01-.78-5.16-.81l-.13-1.92,28.61-2,.13,1.92c-3.22.53-5.28,1.24-6.2,2.08-.9.86-1.32,1.92-1.23,3.15.12,1.73,1.1,4.35,2.94,7.89l20.69,39.81,13.68-41.68c1.34-4.11,1.96-6.94,1.85-8.49-.07-1-.63-1.92-1.7-2.77-1.07-.83-2.79-1.36-5.19-1.57-.18-.02-.46-.06-.89-.1l-.13-1.92,21.59-1.51ZM506.41,40.61l-3.38,27.54,15.31,1.88c3.98.49,6.7.22,8.18-.81,1.98-1.36,3.31-4.01,4-7.97l1.89.23-2.98,24.26-1.89-.23c-.06-3.44-.28-5.68-.64-6.7-.47-1.27-1.37-2.34-2.69-3.2-1.32-.86-3.43-1.47-6.34-1.83l-15.31-1.88-2.82,22.98c-.38,3.09-.47,4.98-.29,5.68.2.7.61,1.29,1.24,1.77.64.47,1.93.82,3.84,1.06l11.82,1.45c3.93.48,6.84.57,8.68.23,1.86-.32,3.69-1.18,5.53-2.6,2.38-1.86,4.95-4.8,7.7-8.81l2.05.25-8.14,16.73-53.7-6.59.23-1.89,2.47.3c1.63.2,3.24-.01,4.81-.62,1.17-.41,2.01-1.14,2.55-2.18.52-1.06.99-3.28,1.41-6.66l5.56-45.27c.54-4.42.44-7.19-.33-8.34-1.06-1.52-3.03-2.45-5.9-2.81l-2.47-.3.24-1.91,53.7,6.59-1.1,15.35-2.02-.25c-.27-3.75-.75-6.36-1.46-7.83-.71-1.48-1.86-2.69-3.49-3.62-1.31-.68-3.69-1.24-7.15-1.66l-19.12-2.35ZM560.4,44.01l18.12,5.89,24.55,63.34,12.51-38.5c1.33-4.1,1.7-6.82,1.12-8.13-.78-1.78-2.47-3.09-5.09-3.94l-2.32-.75.6-1.83,23.24,7.55-.59,1.83-2.37-.77c-2.82-.92-5.1-.71-6.83.6-1.07.82-2.19,3.1-3.41,6.84l-18.28,56.27-1.78-.58-26.55-68.06-13.36,41.12c-1.33,4.1-1.72,6.8-1.17,8.11.8,1.78,2.5,3.1,5.09,3.94l2.35.76-.59,1.81-23.23-7.55.59-1.81,2.3.75c2.86.93,5.15.73,6.9-.6,1.06-.81,2.2-3.1,3.41-6.83l15.09-46.43c-1.2-2.9-2.19-4.87-2.95-5.92-.77-1.05-2.02-2.2-3.75-3.45-.86-.6-2.26-1.22-4.19-1.85l.59-1.83ZM690.74,96.36l-11.77,21.23-1.67-.93c1.71-4.39,2.53-8.17,2.48-11.36-.06-3.21-1.01-6.24-2.83-9.08-1.81-2.86-4.09-5.05-6.87-6.6-3.14-1.74-6.26-2.22-9.38-1.44-3.12.78-5.35,2.39-6.7,4.83-1.04,1.87-1.34,3.95-.89,6.2.61,3.31,3.39,8.79,8.33,16.46,4.03,6.25,6.64,10.79,7.81,13.6,1.19,2.8,1.74,5.65,1.63,8.5-.11,2.87-.84,5.52-2.19,7.96-2.58,4.65-6.61,7.65-12.07,9.03-5.48,1.36-11.05.48-16.73-2.66-1.79-.99-3.39-2.06-4.81-3.21-.85-.65-2.49-2.29-4.9-4.86-2.41-2.59-4.01-4.1-4.8-4.54-.76-.42-1.47-.51-2.17-.31-.68.21-1.53.97-2.53,2.27l-1.67-.93,11.67-21.05,1.67.93c-1.65,4.84-2.41,8.72-2.3,11.66.12,2.92,1.14,5.86,3.07,8.83,1.92,2.95,4.52,5.33,7.78,7.14,3.77,2.09,7.3,2.75,10.6,1.98,3.28-.79,5.68-2.53,7.19-5.25.84-1.51,1.26-3.26,1.3-5.26.02-2.01-.49-4.15-1.5-6.45-.67-1.56-2.82-5.26-6.44-11.13-3.63-5.85-6.05-10.26-7.31-13.24-1.25-3-1.85-5.85-1.84-8.6.03-2.75.75-5.4,2.16-7.94,2.44-4.4,6.22-7.26,11.37-8.57,5.15-1.31,10.33-.52,15.55,2.38,3.26,1.81,6.29,4.51,9.04,8.14,1.26,1.69,2.26,2.73,2.94,3.11.79.44,1.57.57,2.32.38.76-.21,1.68-.93,2.77-2.16l1.67.93ZM713.89,153.05l4.56,36.21c.73,5.95,1.8,10.47,3.22,13.53,1.42,3.06,3.26,5.59,5.49,7.61l-1.17,1.5-26.32-20.56,1.17-1.5c1.57,1.23,2.92,1.86,4.04,1.86,1.11.01,1.92-.3,2.43-.95.51-.65.83-1.35.98-2.06.14-.72.04-2.35-.29-4.89l-4.35-33.81-13.92,17.82c-2.19,2.8-3.45,4.79-3.79,5.97-.27.89-.15,1.92.34,3.09.66,1.57,1.62,2.86,2.93,3.88l1.88,1.47-1.18,1.5-23.57-18.42,1.18-1.5,1.95,1.52c2.28,1.78,4.46,2.41,6.55,1.89,1.33-.35,3.29-2.2,5.88-5.52l27.93-35.74c2.19-2.8,3.46-4.81,3.83-6,.23-.87.12-1.88-.33-3.02-.69-1.59-1.69-2.89-3-3.91l-1.95-1.52,1.19-1.52,23.57,18.42-1.19,1.52-1.88-1.47c-1.28-1-2.75-1.65-4.43-1.96-1.19-.23-2.28-.03-3.29.59-1.01.6-2.58,2.27-4.7,4.98l-13.23,16.93c.96-.08,4.16-.36,9.64-.81,13.85-1.08,22.6-2.21,26.21-3.36,1.57-.52,2.7-1.19,3.33-1.99.49-.63.63-1.41.43-2.33-.2-.92-.98-1.91-2.34-2.97l-1.27-.99,1.19-1.52,20.32,15.87-1.19,1.52c-1.22-.91-2.42-1.6-3.64-2.06-1.2-.47-2.86-.82-4.94-1.08-2.08-.24-4.9-.22-8.46.07-1.02.08-5.96.71-14.81,1.88l-15.01,1.82ZM790.09,187.38l-21.56,17.46,9.71,11.99c2.52,3.12,4.67,4.81,6.45,5.1,2.37.4,5.16-.59,8.41-2.95l1.2,1.48-18.99,15.38-1.2-1.48c2.35-2.52,3.74-4.28,4.2-5.26.54-1.24.64-2.63.29-4.17-.35-1.53-1.45-3.44-3.29-5.72l-9.71-11.99-17.99,14.57c-2.42,1.96-3.8,3.26-4.15,3.89-.34.64-.46,1.35-.34,2.14.13.78.81,1.93,2.03,3.43l7.5,9.26c2.49,3.08,4.52,5.16,6.08,6.19,1.56,1.06,3.48,1.71,5.78,1.98,3.01.32,6.9-.02,11.66-.99l1.3,1.61-17.48,6.38-34.05-42.05,1.48-1.2,1.57,1.94c1.03,1.28,2.34,2.24,3.89,2.9,1.13.52,2.24.57,3.35.2,1.11-.4,2.99-1.67,5.64-3.82l35.44-28.7c3.46-2.8,5.31-4.87,5.55-6.23.29-1.83-.47-3.87-2.3-6.12l-1.57-1.94,1.5-1.21,34.05,42.05-11.46,10.28-1.28-1.58c2.41-2.89,3.88-5.1,4.39-6.65.51-1.55.53-3.22,0-5.03-.47-1.39-1.8-3.46-3.99-6.16l-12.12-14.97ZM824.64,187.71l-23.48-.63-1.11-1.37,17.29-7,7.29,9.01ZM810.49,264.08l14.81,29.06,17.9-9.12c3.2-1.63,5.2-2.91,6.01-3.82.61-.71.94-1.69,1-2.95.07-1.7-.29-3.29-1.04-4.77l-1.12-2.2,1.72-.87,13.63,26.75-1.72.87-1.13-2.22c-.75-1.46-1.81-2.69-3.19-3.65-.99-.74-2.09-1.02-3.26-.88-1.18.17-3.3,1.03-6.37,2.59l-40.37,20.57c-3.16,1.61-5.16,2.87-5.96,3.79-.62.69-.96,1.66-1.02,2.9-.05,1.73.29,3.34,1.04,4.8l1.13,2.22-1.7.87-13.63-26.75,1.7-.87,1.12,2.2c1.3,2.55,3.01,4.04,5.12,4.43,1.37.27,3.94-.56,7.69-2.47l19.05-9.71-14.81-29.06-19.05,9.71c-3.16,1.61-5.15,2.88-5.96,3.79-.61.71-.94,1.69-.99,2.96-.07,1.7.26,3.28,1.02,4.76l1.16,2.27-1.7.87-13.65-26.8,1.7-.87,1.12,2.2c1.32,2.58,3.03,4.07,5.14,4.48,1.35.23,3.92-.61,7.66-2.52l40.37-20.57c3.2-1.63,5.2-2.91,6.01-3.82.61-.71.95-1.67,1.02-2.9.05-1.73-.31-3.33-1.06-4.81l-1.12-2.2,1.72-.87,13.65,26.8-1.72.87-1.16-2.27c-.75-1.48-1.81-2.69-3.19-3.65-.98-.71-2.07-.99-3.25-.84-1.2.14-3.33.98-6.4,2.55l-17.9,9.12ZM881.98,348.15c2.51,8.76,1.38,17.31-3.44,25.64-4.82,8.33-12.19,13.92-22.14,16.77-10.26,2.94-19.7,2.14-28.32-2.4-8.63-4.53-14.26-11.39-16.89-20.58-2.66-9.27-1.59-18.04,3.19-26.25,4.8-8.21,12.43-13.82,22.91-16.83,10.72-3.07,20.5-1.92,29.36,3.42,7.7,4.67,12.79,11.41,15.32,20.22h0ZM878.09,348.25c-1.73-6.05-5.36-10.25-10.9-12.61-6.87-2.94-15.68-2.88-26.43.21-11.02,3.16-18.82,7.95-23.4,14.36-3.48,4.91-4.37,10.33-2.67,16.28,1.82,6.34,5.8,10.86,11.92,13.57,6.13,2.71,14.52,2.55,25.17-.51,11.53-3.31,19.49-8.05,23.86-14.23,3.47-4.95,4.29-10.62,2.44-17.06h0ZM864.14,452.77l-.57,32.61,20.09.35c3.59.06,5.96-.13,7.1-.55.87-.34,1.63-1.05,2.26-2.13.86-1.47,1.29-3.03,1.32-4.7l.04-2.47,1.93.03-.52,30.02-1.93-.03.04-2.49c.03-1.64-.33-3.22-1.1-4.72-.53-1.12-1.36-1.88-2.47-2.31-1.12-.41-3.4-.64-6.85-.7l-45.3-.79c-3.55-.06-5.91.11-7.04.55-.87.32-1.63,1.01-2.26,2.08-.86,1.5-1.31,3.09-1.34,4.73l-.04,2.49-1.91-.03.52-30.02,1.91.03-.04,2.47c-.05,2.86.76,4.98,2.43,6.32,1.08.88,3.74,1.36,7.95,1.43l21.38.37.57-32.61-21.38-.37c-3.55-.06-5.91.13-7.04.55-.87.34-1.63,1.05-2.26,2.15-.86,1.47-1.31,3.02-1.34,4.68l-.04,2.54-1.91-.03.52-30.07,1.91.03-.04,2.47c-.05,2.9.76,5.02,2.43,6.37,1.08.83,3.74,1.3,7.95,1.38l45.3.79c3.59.06,5.96-.13,7.1-.55.87-.34,1.63-1.03,2.26-2.08.86-1.51,1.29-3.09,1.32-4.75l.04-2.47,1.93.03-.52,30.07-1.93-.03.04-2.54c.03-1.66-.33-3.22-1.1-4.72-.53-1.09-1.36-1.84-2.47-2.27-1.12-.44-3.4-.7-6.84-.76l-20.09-.35ZM887.3,561.65c-2.05,8.88-7.18,15.81-15.44,20.76-8.25,4.95-17.41,6.26-27.49,3.93-10.4-2.4-18.27-7.68-23.6-15.82-5.36-8.15-6.95-16.87-4.8-26.19,2.17-9.4,7.36-16.55,15.52-21.41,8.18-4.86,17.58-6.06,28.2-3.61,10.86,2.51,18.86,8.25,24.02,17.23,4.47,7.81,5.66,16.18,3.6,25.11ZM883.85,559.86c1.42-6.13.28-11.56-3.42-16.31-4.59-5.9-12.32-10.12-23.22-12.63-11.17-2.58-20.32-2.17-27.43,1.21-5.43,2.61-8.83,6.92-10.22,12.95-1.48,6.42-.19,12.31,3.85,17.65,4.04,5.34,11.46,9.27,22.26,11.76,11.69,2.7,20.95,2.41,27.77-.88,5.43-2.64,8.9-7.21,10.41-13.74h0ZM830.94,626.72l-34.03,13.18c-5.6,2.15-9.72,4.28-12.35,6.4-2.63,2.12-4.64,4.51-6.05,7.17l-1.74-.78,13.58-30.51,1.74.78c-.81,1.82-1.09,3.28-.82,4.37.25,1.08.75,1.79,1.51,2.12.76.34,1.51.48,2.24.45.73-.04,2.29-.53,4.67-1.46l31.75-12.4-20.66-9.2c-3.25-1.44-5.49-2.19-6.71-2.23-.93-.05-1.9.31-2.92,1.08-1.36,1.02-2.38,2.27-3.06,3.78l-.97,2.18-1.74-.78,12.17-27.33,1.74.78-1.01,2.26c-1.18,2.65-1.26,4.91-.25,6.81.66,1.2,2.93,2.66,6.78,4.37l41.44,18.45c3.24,1.44,5.5,2.2,6.75,2.27.9.02,1.85-.34,2.85-1.05,1.38-1.05,2.4-2.34,3.07-3.86l1.01-2.26,1.76.78-12.17,27.33-1.76-.78.97-2.18c.66-1.49.94-3.06.83-4.78-.06-1.21-.52-2.22-1.37-3.05-.83-.83-2.82-1.95-5.97-3.36l-19.63-8.74c.31.91,1.36,3.95,3.12,9.16,4.4,13.18,7.61,21.4,9.6,24.62.89,1.4,1.81,2.33,2.74,2.75.73.32,1.52.27,2.37-.15.84-.42,1.61-1.41,2.32-2.99l.65-1.47,1.76.78-10.49,23.55-1.76-.78c.59-1.4.97-2.74,1.12-4.03.16-1.28.1-2.97-.15-5.06-.28-2.08-.97-4.81-2.12-8.2-.32-.97-2.13-5.61-5.41-13.92l-5.39-14.12ZM817.29,707.08l-22.73-15.91-8.85,12.64c-2.3,3.29-3.34,5.82-3.12,7.61.27,2.39,1.99,4.8,5.15,7.28l-1.09,1.56-20.02-14.02,1.09-1.56c3.07,1.57,5.15,2.42,6.22,2.58,1.34.18,2.71-.11,4.08-.87,1.38-.76,2.91-2.34,4.59-4.74l8.85-12.64-18.96-13.28c-2.55-1.78-4.18-2.75-4.88-2.92-.71-.15-1.42-.07-2.15.26-.71.34-1.63,1.32-2.74,2.89l-6.83,9.76c-2.27,3.24-3.72,5.77-4.28,7.55-.59,1.79-.69,3.81-.31,6.11.53,2.98,1.92,6.63,4.16,10.94l-1.19,1.69-10.95-15.05,31.03-44.32,1.56,1.09-1.43,2.04c-.94,1.35-1.51,2.87-1.71,4.54-.19,1.23.06,2.31.73,3.27.69.96,2.43,2.41,5.22,4.37l37.36,26.16c3.65,2.55,6.14,3.76,7.52,3.62,1.84-.22,3.59-1.52,5.25-3.89l1.43-2.04,1.58,1.1-31.03,44.32-13.04-8.18,1.17-1.66c3.44,1.52,5.97,2.32,7.6,2.39,1.64.07,3.24-.38,4.83-1.38,1.21-.84,2.83-2.68,4.82-5.53l11.05-15.78ZM779.22,757.1l1.41,1.31-20.51,22-1.41-1.31,1.74-1.86c1.95-2.09,2.75-4.2,2.42-6.3-.25-1.37-1.9-3.48-4.97-6.35l-25.11-23.42c-3.86-3.6-6.61-6.93-8.2-10.02-1.62-3.08-2.35-6.49-2.19-10.21.14-3.73,1.59-7.07,4.31-9.99,2.22-2.38,4.55-3.68,6.99-3.97,2.44-.26,4.42.31,5.94,1.72,1.24,1.16,1.88,2.33,1.92,3.56,0,1.58-.51,2.91-1.55,4.02-.75.8-1.69,1.3-2.81,1.44-1.13.15-3.31-.36-6.53-1.52-1.9-.68-3.28-.57-4.13.33-.64.68-.82,1.7-.53,3.08.27,1.37,1.48,3.05,3.6,5.02l35.06,32.69c2.6,2.42,4.47,3.86,5.6,4.31.87.33,1.91.31,3.11-.07,1.62-.52,2.99-1.39,4.12-2.61l1.72-1.85Z"/>
    <path id="path146" class="cls-12" d="M683.41,782.14l21.99-15.97-2.67-11.76c-.64-2.9-1.36-4.88-2.16-5.98-.62-.86-1.59-1.31-2.88-1.38-1.31-.06-3.39.8-6.28,2.6l-1.12-1.54,17.88-12.99,1.12,1.54c-2.06,2.15-3.2,3.81-3.41,4.99-.46,2.37-.05,6.24,1.2,11.6l13.97,61.25-1.46,1.06-54.09-32.87c-4.35-2.65-7.58-4.06-9.7-4.24-2.12-.18-4.4.49-6.82,2.03l-1.12-1.54,22.42-16.29,1.12,1.54c-2.18,1.76-3.42,3.25-3.76,4.48-.34,1.21-.17,2.29.5,3.22.89,1.23,2.87,2.74,5.91,4.59l9.36,5.67ZM686.83,784.39l26.31,15.94-6.79-30.12-19.51,14.18Z"/>
  </g>
  <g id="Layer_4" data-name="Layer 4">
    <path id="path18" class="cls-6" d="M504.46,307.76c11.28,4.96,21.37.21,31.13-7.27,6.95-6.71,13.8-11.7,20.45-12.95,5,8.17,9.54,15.01,13.52,20.13,5.98,7.71,10.67,11.55,13.63,10.23,3.8-1.7,4.75-11.93,1.93-33.43-2.76-25.59-10.42-43.82-24.08-53.05-17.59-9.53-35.42-9.03-53.62,5.68-20.92,20.85-23.91,42.46-16.36,64.52l34.76,37.94,2.95-2.04-24.31-25.22c-2.65-3.22-2.73-5.19,0-4.54h0Z"/>
    <path class="cls-5" d="M325.1,784.09h0s0,.01-.01,0h.01Z"/>
    <path class="cls-6" d="M813.28,464.9c0,20.74-1.81,41.06-5.29,60.81-.1.57-.2,1.15-.31,1.72-.13.75-.27,1.51-.42,2.26-1.7,9.04-3.76,17.96-6.14,26.74-.27,1.01-.55,2.01-.83,3.01-.61,2.16-1.24,4.31-1.89,6.45-.35,1.15-.7,2.29-1.06,3.43-.29.93-.6,1.86-.9,2.79-.24.74-.47,1.49-.71,2.23h-.02c-8.72,26.38-20.51,51.38-34.95,74.55v.02h-.02c-29.36,47.12-69.65,86.72-117.35,115.23l-.34.76c-3.47,6.87-4.4,13.64-.91,20.22l10.91,18.4c5.39,11.3,2.79,19.56-8.92,24.36-.52.21-1.07.42-1.63.62l-3.29,32.12c-.21,1.75-.84,2.69-3.41-.19l-3.37-4.5h0s2.65-25.95,2.65-25.95c.19-1.78.37-3.56.55-5.34l-.5.17c-.37.13-.76.26-1.15.38-.4.13-.8.25-1.21.37l-20.33,2.49c-.83.1-1.66.21-2.49.31-.65.08-1.31.16-1.95.24,1.08,1.44,2.15,2.87,3.23,4.31-5.03.51-8.84-.6-11.07-3.86-.88-1.28-1.51-2.89-1.87-4.86.14-8.15-.28-16.23-2.27-24.08-.61-3.95-1.08-7.89-1.38-11.8-2.07.84-4.15,1.65-6.24,2.44-29.94,11.36-61.86,18.71-95.09,21.38l-10.31,19.66c-5.83,11-12.14,17.74-19.54,21.58l-81.11,31.58c-6.2,2.43-11.2,1.74-14.72-2.56,2.33.29,4.96-.17,7.85-1.3,27.04-10.53,54.07-21.06,81.11-31.58.23-.12.46-.24.69-.37.46-.25.91-.52,1.36-.79.68-.41,1.34-.85,2-1.32.44-.31.88-.64,1.31-.97.21-.17.43-.34.64-.51.43-.35.85-.71,1.27-1.09,4.42-3.94,8.45-9.32,12.27-16.54,2.65-5.05,5.3-10.11,7.96-15.16,10.4-19.85,20.82-39.69,31.23-59.54l67.91-129.45c-.11-.1-.22-.19-.33-.3-.48-.42-.96-.85-1.44-1.3-.14-.14-.29-.27-.43-.41-.49-.45-.98-.92-1.47-1.4l-.78-.78h-.01c-.15-.15-.31-.31-.46-.47l-10.48,7.21h0s-14.32,9.86-14.32,9.86c-22.77,41.88-45.51,83.76-68.28,125.64-.01.02-.03.05-.04.07-8.62,15.88-17.25,31.75-25.88,47.63-.23.34-.47.67-.73.99-.76.95-1.66,1.84-2.7,2.66-21.9-.56-43.3-3.14-64.01-7.58-.06-.01-.11-.02-.17-.04-.89-.19-1.77-.38-2.66-.58-.94-.21-1.88-.42-2.82-.64-.91-.21-1.81-.42-2.71-.64-.97-.23-1.94-.46-2.91-.7-1.85-.47-3.71-.94-5.56-1.43-3.83-1.02-7.64-2.1-11.42-3.26-.47-.14-.95-.28-1.42-.43-.47-.15-.94-.29-1.41-.44-.28-.08-.55-.17-.82-.25-.96-.3-1.91-.61-2.86-.92-.49-.15-.98-.31-1.47-.47-.18-.06-.37-.12-.55-.19-.67-.22-1.34-.44-2.01-.67-1.81-.61-3.6-1.24-5.39-1.87-1.79-.64-3.57-1.29-5.35-1.96-5.41-2.03-10.75-4.19-16.03-6.48-.41-.17-.81-.35-1.21-.52h-.01c-1.21.63-2.44,1.24-3.68,1.83-13.87,5.67-22.79,17.65-29.99,31.81-4.94,16.78-13.24,27.29-30.13,23.36l-26.78,14.23c-4.18,1.8-6.23,1.07-4.65-4.03l.54-1.3c7.93-4.21,15.85-8.42,23.78-12.64-.17-.09-.34-.19-.51-.3t-.02-.02s-.02-.01-.03-.01c-4.58-2.76-8.95-5.82-13.03-9.25-.25-.21-.5-.42-.74-.63-1.48-1.27-2.92-2.59-4.32-3.96l-.45-17.95c-2.06-1.57-2.94-3.43-1.37-5.91l43.62-35.44c.55-1.44,1.09-2.88,1.64-4.33-2.24-1.41-4.47-2.85-6.68-4.33-20.45-13.58-39.37-29.28-56.45-46.77-1.2-1.24-2.4-2.48-3.59-3.73s-2.36-2.51-3.53-3.77c-1.17-1.27-2.33-2.55-3.48-3.83-1.15-1.28-2.29-2.58-3.42-3.88-.76-.87-1.51-1.74-2.25-2.61-1.5-1.76-2.98-3.52-4.43-5.3-1.45-1.77-2.89-3.56-4.31-5.36-3.56-4.54-7.01-9.16-10.35-13.87-12.33-17.39-23.11-35.96-32.1-55.52h-.01c-20.45-44.34-31.85-93.68-31.85-145.69,0-120.56,61.24-226.82,154.31-289.35h.01c55.46-37.29,122.22-59.03,194.06-59.03,56.48,0,109.82,13.44,157,37.31,2.54,1.29,5.07,2.61,7.58,3.95,2.51,1.34,5,2.71,7.47,4.13,2.47,1.41,4.92,2.85,7.36,4.31,1.21.73,2.43,1.47,3.63,2.22,1.21.74,2.41,1.5,3.61,2.26,8.38,5.32,16.51,11,24.38,17,1.13.85,2.25,1.72,3.36,2.59,23.66,18.49,44.87,39.98,63.04,63.89v.02c15.52,20.36,28.81,42.49,39.57,66.02.74,1.63,1.48,3.26,2.19,4.9.69,1.58,1.37,3.16,2.04,4.74.68,1.62,1.35,3.25,2.01,4.88s1.3,3.27,1.94,4.92c.63,1.64,1.25,3.29,1.86,4.95.61,1.65,1.21,3.31,1.79,4.98.59,1.67,1.16,3.34,1.72,5.02.84,2.52,1.65,5.05,2.44,7.6.79,2.54,1.54,5.1,2.26,7.67.24.85.48,1.71.72,2.57.23.86.47,1.72.7,2.58.92,3.45,1.79,6.91,2.6,10.4.61,2.62,1.19,5.24,1.74,7.88.18.88.36,1.76.54,2.65.35,1.76.69,3.53,1.02,5.3h-.02c3.81,20.64,5.83,41.91,5.83,63.64Z"/>
    <path class="cls-6" d="M562.4,863.73c-14.68,15.71-33.56,20.29-56.12,15.1l-.8-2.69c19.9,3.08,36.71-1.99,50.05-16.28-.16-.94-.32-1.89-.48-2.83-.59-3.56-1.19-7.11-1.79-10.67,2.28.45,4.47,1.04,6.52,1.8l2.62,15.57Z"/>
  </g>
  <g id="Layer_3" data-name="Layer 3">
    <path class="cls-4" d="M320.68,664.38c-6.55,5.6-12.28,12.69-17.44,20.8l-87.4,23.28c-1.2-1.24-2.4-2.48-3.59-3.73s-2.36-2.51-3.53-3.77c-1.17-1.27-2.33-2.55-3.48-3.83-1.15-1.28-2.29-2.58-3.42-3.88-.76-.87-1.51-1.74-2.25-2.61-1.5-1.76-2.98-3.52-4.43-5.3-1.45-1.77-2.89-3.56-4.31-5.36-3.56-4.54-7.01-9.16-10.35-13.87l141.83-9.47c-.75,1.9-1.31,4.45-1.63,7.74Z"/>
    <path class="cls-4" d="M391.87,805.59c-.06-.01-.11-.02-.17-.04-.89-.19-1.77-.38-2.66-.58-.94-.21-1.88-.42-2.82-.64-.91-.21-1.81-.42-2.71-.64-.97-.23-1.94-.46-2.91-.7-1.85-.47-3.71-.94-5.56-1.43-3.83-1.02-7.64-2.1-11.42-3.26-.47-.14-.95-.28-1.42-.43-.75-.22-1.49-.46-2.23-.69-.96-.3-1.91-.61-2.86-.92-.67-.22-1.35-.44-2.02-.66-.67-.22-1.34-.44-2.01-.67-1.81-.61-3.6-1.24-5.39-1.87-1.79-.64-3.57-1.29-5.35-1.96-5.41-2.03-10.75-4.19-16.03-6.48-.34-.14-.69-.3-1.03-.45,16.47-8.57,29.86-21.32,40.53-37.77,7.28-7.87,14.83-14.76,22.67-20.67l3.39,79.86Z"/>
    <path class="cls-4" d="M318.88,288.29l77.7,215.38-143.58,100.88h102.43c.14.14.34.23.57.2,3.52-.51,5.88.9,7.74,3.16-.38.24-.74.49-1.08.74-5.77,4.2-6.33,9.7-4.72,15.74-2.2.54-4.09,1.46-5.59,2.85l-203.97-16.65h-.01s214.13-127.36,214.13-127.36l-91.67-307.68h.01s201.43,192.91,201.43,192.91c-.9,1.74-1.78,3.47-2.64,5.2-.01.02-.02.04-.03.06-2.13,4.27-4.13,8.5-5.98,12.67-.01.03-.02.06-.04.09-1.95,4.41-3.74,8.76-5.35,13.04-.02.07-.05.14-.07.2-.89,2.39-1.73,4.76-2.51,7.1l-136.77-118.53Z"/>
    <path class="cls-4" d="M489.32,338.3l-124.42-207.19c21.14-6.32,43.11-10.7,65.72-12.91l51.65,144.52h0c-3.14,11.53-2.13,23.22,1.92,35.04,1.84,2.01,3.68,4.01,5.52,6.02h0s11.87,14.99,11.87,14.99c0,0,0,.01-.01.01-.07.12-.15.23-.22.35-2.42,3.75-4.8,7.49-7.11,11.2-.15.24-.3.48-.45.72-1.51,2.42-3,4.84-4.47,7.25Z"/>
    <path class="cls-4" d="M568.69,608.23h0s-6.86,12.63-6.86,12.63l-2.16,3.97-2.2,4.05-2.25,4.14c-.57,1.05-1.14,2.1-1.71,3.16h-.01l-5.15-.05-63.12,125.69s-.03.05-.04.07c-8.62,15.88-17.25,31.75-25.88,47.63-.23.34-.47.67-.73.99l-32.17-106.2c14.77-8.11,25.79-18.17,32.98-30.25l22.39,61.01,53.84-129.62,29.56-1.69h.12s3.39,4.47,3.39,4.47Z"/>
    <path class="cls-4" d="M679.29,190.29l-88.85,85.43c-2.29.88-4.61,1.8-6.96,2.75-2.25-15.52-6.53-28.02-13.11-37.06l.38-.64,51.15-86.94c2.54,1.29,5.07,2.61,7.58,3.95,2.51,1.35,5,2.73,7.47,4.13,2.47,1.41,4.92,2.85,7.36,4.31,1.21.73,2.43,1.47,3.63,2.22,1.21.74,2.41,1.5,3.61,2.26,8.38,5.32,16.51,11,24.38,17,1.13.85,2.25,1.72,3.36,2.59Z"/>
    <path class="cls-4" d="M742.34,254.2l-11.54,25.28c-1.43-1.04-2.91-2.1-4.46-3.19-2.52-2.44-5.31-4.64-8.4-6.57l24.39-15.54v.02Z"/>
    <path class="cls-4" d="M760.76,648.89v.02h-.02l-80.03-2.01c1.08-4.12,1.08-8.61.07-13.44,4.94-4.76,8.37-10.11,9.08-16.53,1.48-.12,2.2-1.03,2.02-2.56l-.09-6.82c1.37,1.5,2.7,3.07,3.99,4.7,1.93,2.46,2.93,4.51,3.1,5.99-.13-9.43-.24-18.86-.47-28.25l62.35,58.9Z"/>
    <path class="cls-4" d="M807.47,401.26h-.02s-87.45,59.83-87.45,59.83l4.05-33.72c12.24-14.86,21.61-33,29.61-52.7l1.34-21.12,26.9-33.33c.74,1.63,1.48,3.26,2.19,4.9.69,1.58,1.37,3.16,2.04,4.74.68,1.62,1.35,3.25,2.01,4.88s1.3,3.27,1.94,4.92c.63,1.64,1.25,3.29,1.86,4.95.61,1.65,1.21,3.31,1.79,4.98.59,1.67,1.16,3.34,1.72,5.02.84,2.52,1.65,5.05,2.44,7.6.78,2.54,1.53,5.1,2.26,7.67.24.85.48,1.71.72,2.57.23.86.47,1.72.7,2.58.91,3.45,1.78,6.91,2.6,10.4.61,2.62,1.19,5.24,1.74,7.88.18.88.36,1.76.54,2.65.35,1.76.69,3.53,1.02,5.3Z"/>
    <path class="cls-4" d="M807.99,525.71c-.1.57-.2,1.15-.31,1.72-.13.75-.27,1.51-.42,2.26-1.7,9.04-3.76,17.96-6.14,26.74-.27,1.01-.55,2.01-.83,3.01-.61,2.16-1.24,4.31-1.89,6.45-.35,1.15-.7,2.29-1.06,3.43-.52,1.68-1.06,3.35-1.61,5.02h-.02s-102.49-43.85-102.49-43.85c-1.59-8.72-3.67-17.26-6.4-25.58l121.17,20.8Z"/>
  </g>
  <g id="Layer_5" data-name="Layer 5">
    <path id="path334" class="cls-7" d="M197.05,388.77c25.94-4.29,51.01-3.89,75.43,0v54.98c-1.81,26.88-18.46,38.43-39.08,45.89-15.38-6.48-26.58-15.75-32.36-27.69-3-6.19-4.54-13.1-4.44-20.7.15-17.49.3-34.99.45-52.48h0Z"/>
    <path id="path346" class="cls-3" d="M197.05,388.77c25.94-4.29,51.01-3.89,75.43,0v54.98c-1.81,26.88-18.46,38.43-39.08,45.89-15.38-6.48-26.58-15.75-32.36-27.69-3-6.19-4.54-13.1-4.44-20.7.15-17.49.3-34.99.45-52.48h0Z"/>
    <path class="cls-4" d="M266.97,420.41v15.22l-28.4-4.43v13.96c-2.6-.71-5.22-.78-7.72-.23v-13.73l-28.4,4.43v-15.22l28.28,2.27v-9.54l-17.6,2.72-.46-11.58,17.5,1.13-3.64-14.54c2.77-.61,5.49-.9,8.18-.91,2.69,0,5.42.3,8.18.91l-3.64,14.54,17.5-1.13-.46,11.58-17.6-2.72v9.54l28.28-2.27Z"/>
    <path class="cls-1" d="M269.06,459.85c-6.18,15.82-19.74,24.03-35.66,29.79-15.38-6.48-26.59-15.75-32.36-27.69,3.28-8.18,9.12-10.81,17.86-7.17,2.94-5.53,7.23-8.81,11.95-9.85,2.5-.55,5.12-.48,7.72.23,4.59,1.24,9.11,4.45,12.82,9.62,9.19-4.37,13.94-.58,17.67,5.07Z"/>
    <path id="path356" class="cls-9" d="M197.05,388.77c25.94-4.29,51.01-3.89,75.43,0v54.98c-1.81,26.88-18.46,38.43-39.08,45.89-15.38-6.48-26.58-15.75-32.36-27.69-3-6.19-4.54-13.1-4.44-20.7.15-17.49.3-34.99.45-52.48h0Z"/>
  </g>
  <g id="Layer_8" data-name="Layer 8">
    <path class="cls-11" d="M552.91,844.3c-15.86-5.84-39.75-2.3-50.82,8.72-.34.33-.66.67-.97,1.02-2.63,2.94-4.38,6.37-4.89,10.25l3.18,10.68c2.05.47,4.08.86,6.07,1.17,19.9,3.08,36.71-1.99,50.05-16.28-.16-.94-.32-1.89-.48-2.83-.59-3.56-1.19-7.11-1.79-10.67l-.35-2.06Z"/>
    <path class="cls-11" d="M750.75,306.28c-1.36,21.51-2.73,43.01-4.09,64.52-8,19.71-17.37,37.85-29.61,52.7-1.87,15.53-3.74,31.06-5.6,46.58-13.62,12.1-24.56,20.99-33.02,26.88,11.6,32.5,12.75,68.65,13.28,105.01l.17,12.4c.36,3.12-2.98,3.68-9,.15l-.2-.19c-1,5.86-4.29,10.82-8.9,15.27,1.31,6.29.92,12.01-1.35,17.1-.93,2.09-2.18,4.08-3.76,5.96,4.5,8.16,4.21,18.65-.68,31.35,1.06,7.21-.46,13.39-5.46,18.18-8.78,19.61-17.57,39.23-26.35,58.84-1.51,3.01-2.55,5.99-2.93,8.94-.51,3.81.05,7.58,2.02,11.28,3.64,6.14,7.27,12.27,10.91,18.4,5.39,11.3,2.79,19.57-8.92,24.36-.35.14-.7.28-1.06.42-.35.13-.71.26-1.07.38l.5-.17c-.18,1.78-.36,3.56-.55,5.34-.88,8.64-1.76,17.3-2.65,25.95l-.09.83c-.02.18-.04.34-.08.5-.03.16-.06.3-.11.44-.06.17-.13.32-.22.44-.4.51-1.14.37-2.57-1.12-.13-.14-.27-.29-.42-.46-5.9-7.88-11.81-15.77-17.71-23.65-1.08-1.44-2.15-2.87-3.23-4.31-.16.02-.31.04-.47.06-.42.05-.84.1-1.26.15-.4.05-.81.1-1.22.15-1.78.23-3.42.27-4.89.09-4.65-.56-7.73-3.24-8.74-8.72.14-8.16-.28-16.23-2.27-24.08-.28-1.84-.54-3.67-.75-5.5-1.58-13.09-1.46-25.96.75-38.58,4.6-13.87,5.85-28.01,3.18-42.48-1.68-12.04-2.43-24.15-2.31-36.34.01-.81.02-1.63.04-2.45.02-1.26.05-2.53.09-3.81.03-.8.06-1.61.1-2.42.03-.95.08-1.9.13-2.85.05-.89.1-1.79.16-2.68.06-1,.13-1.99.2-2.99.06-.88.13-1.76.21-2.64.06-.76.13-1.53.2-2.29.04-.52.09-1.03.14-1.54.06-.59.12-1.18.18-1.76.31-3.01.67-6.03,1.08-9.05.11-.82.22-1.65.34-2.47.12-.89.25-1.77.39-2.66.13-.88.27-1.77.41-2.65-.15-.08-.3-.16-.45-.24-.17-.09-.33-.18-.49-.27-1.69-.97-2.77-1.84-3.83-2.36-2.11-1.03-5.81-4.55-5.81-4.55l-.51,1.08-.02.05-2.78,5.35-9.13,17.57-55.35,105.5c-10.41,19.85-20.83,39.69-31.23,59.54-2.66,5.05-5.31,10.11-7.96,15.16-3.82,7.22-7.85,12.6-12.27,16.54-.42.38-.84.74-1.27,1.09-.21.17-.43.34-.64.51-.43.33-.87.66-1.31.97-.66.47-1.32.91-2,1.32-.45.27-.9.54-1.36.79-.23.13-.46.25-.69.37-27.04,10.52-54.07,21.05-81.11,31.58-2.89,1.13-5.52,1.59-7.85,1.3-3.91-.44-7.02-2.92-9.19-7.66-3.41-9.09-6.81-18.18-10.22-27.27-1.11-2.36-.6-4.33,1.37-5.94.48-.39,1.05-.76,1.7-1.11.22-.12.45-.23.68-.35.48-.22.99-.43,1.54-.64.54-.21,1.13-.4,1.75-.59,28.02-6.29,56.04-12.57,84.06-18.86,7-1.55,12.69-3.74,16.56-6.8,1.04-.82,1.94-1.71,2.7-2.66.26-.32.5-.65.73-.99,8.63-15.88,17.26-31.75,25.88-47.63.01-.02.03-.05.04-.07,20.64-37.95,48.08-88.49,69.99-128.8l2.25-4.14,2.2-4.05,2.16-3.97,6.86-12.62h0s-8.42-11.13-8.42-11.13l-.1-.13-.08-.12-13.81-20.67-9.46-8.31c-25.35,23.8-48.79,48.28-68.99,73.88-.01.01-.02,0-.02,0l-.04.07c-3.12,3.95-5.11,3.33-5.98-1.93-.03.47-.08.92-.14,1.38-.2,1.85-.46,3.68-.79,5.47,0,.06-.02.12-.03.18-.32,1.73-.69,3.44-1.13,5.11-.22.87-.45,1.73-.71,2.58-.12.42-.25.85-.39,1.27-.13.42-.26.84-.41,1.25-.27.81-.56,1.61-.86,2.41-.48,1.26-.99,2.5-1.54,3.71-.06.16-.13.31-.2.46-.1.21-.2.42-.3.63-.2.44-.41.87-.62,1.29-.19.38-.38.76-.58,1.14-.2.39-.4.78-.62,1.16-.18.34-.37.68-.57,1.02-.24.45-.5.89-.77,1.33-.39.66-.79,1.32-1.21,1.96-1.03,1.61-2.13,3.17-3.3,4.7-.48.63-.98,1.25-1.49,1.87-.28.34-.56.69-.86,1.03-.28.34-.57.67-.87,1.01-.29.33-.59.67-.9,1-.3.33-.61.66-.93.99-.3.33-.62.66-.94.98-1.77,1.81-3.65,3.55-5.64,5.22-.26.23-.53.45-.79.67-.26.22-.53.44-.79.64-.37.31-.74.6-1.12.89-.75.59-1.52,1.17-2.3,1.74-.68.5-1.37.99-2.07,1.48-.14.1-.28.2-.43.3-.37.25-.74.5-1.12.75-.83.55-1.67,1.1-2.53,1.63-.16.11-.33.21-.5.31-1.12.7-2.26,1.38-3.43,2.04-.45.26-.9.51-1.36.76-1.37.76-2.77,1.5-4.2,2.22-2.39,1.21-4.86,2.37-7.43,3.48-.55.25-1.1.5-1.65.76-1.1.52-2.19,1.05-3.28,1.59-2.18,1.1-4.33,2.26-6.47,3.48-1.61.92-3.2,1.88-4.79,2.87-1.21.76-2.42,1.55-3.62,2.35h0c-.37.25-.73.49-1.09.74-9.9,6.76-19.37,15.01-28.4,24.78-10.81,16.67-24.41,29.53-41.16,38.1h-.01c-.96.49-1.93.97-2.91,1.43-13.87,5.67-22.78,17.65-29.99,31.81-1.46,4.95-3.21,9.36-5.38,13.01-.4.66-.81,1.3-1.23,1.91-.43.61-.87,1.2-1.32,1.76-.69.83-1.4,1.6-2.15,2.32h-.01c-.5.47-1.02.91-1.56,1.33-4.22,3.23-9.53,4.59-16.31,3.46-.32-.05-.64-.11-.96-.17s-.65-.13-.98-.21c-.08-.02-.15-.03-.23-.05l-.24.13c-7.93,4.22-15.85,8.43-23.78,12.64-.92.49-1.84.98-2.76,1.47-2.51,1.08-4.26,1.25-4.9.1-.12-.22-.21-.48-.25-.79-.1-.79.05-1.89.5-3.34,3.33-8.05,6.66-16.1,9.99-24.15-1.48-1.27-2.92-2.59-4.32-3.97-.15-5.98-.3-11.96-.45-17.94-2.06-1.57-2.94-3.44-1.37-5.91,14.54-11.82,29.08-23.63,43.63-35.44.61-1.6,1.21-3.2,1.82-4.8,9.4-24.99,18.52-50.49,30.95-70.04h0c5.16-8.12,10.89-15.21,17.44-20.81.32-3.29.88-5.84,1.63-7.74,2.09-5.29,5.71-5.62,10.18-3.17,2.61-8.48,7.54-15.9,16.81-21.35.68-2.05,1.71-3.65,3.05-4.88,1.5-1.39,3.39-2.31,5.59-2.85-1.61-6.04-1.05-11.54,4.72-15.74.34-.25.7-.5,1.08-.74-1.86-2.26-4.22-3.67-7.74-3.16-.53.07-.92-.48-.64-.94,2.17-3.64,4.38-7.25,6.62-10.85.67-1.08,1.35-2.16,2.03-3.24.58-.93,1.17-1.86,1.77-2.79.65-1.02,1.3-2.04,1.96-3.06.83-1.3,1.67-2.59,2.53-3.86.64-1.02,1.3-2.02,1.97-3.03.13-.21.28-.42.43-.63,1.03-1.58,2.09-3.16,3.17-4.74,2.55-3.8,5.16-7.57,7.8-11.33.79-1.12,1.58-2.23,2.38-3.34.6-.85,1.21-1.71,1.83-2.56.88-1.23,1.78-2.46,2.68-3.69,1.21-1.66,2.43-3.32,3.66-4.97.5-.67.99-1.34,1.5-2,.17-.23.34-.46.51-.68.97-1.3,1.95-2.6,2.94-3.89,1.21-1.59,2.44-3.18,3.67-4.76.32-.42.66-.84.98-1.26.84-1.09,1.7-2.18,2.56-3.26.44-.55.87-1.1,1.31-1.65.25-.32.51-.64.77-.96.84-1.06,1.68-2.11,2.53-3.16,1.6-1.98,3.21-3.95,4.84-5.92-4.31,1.08-5.46-1.06-3.41-6.49,6.02-19.49,18.79-36.72,37.43-52h0c.08-.07.16-.13.24-.2-.17-.85-.32-1.69-.46-2.55-.15-.92-.28-1.84-.39-2.78-.26-2.11-.42-4.25-.5-6.42,0-.09-.01-.19-.01-.28-.11-3.41,0-6.91.32-10.47v-.05c.35-4,.96-8.09,1.81-12.27.01-.06.02-.12.04-.18.68-3.36,1.51-6.78,2.49-10.25.01,0,.01-.02.02-.04,1.33-4.73,2.94-9.56,4.78-14.48.02-.06.05-.13.07-.2,1.61-4.28,3.4-8.63,5.35-13.04.02-.03.03-.06.04-.09,1.85-4.17,3.85-8.4,5.98-12.67.01-.02.02-.04.03-.06,1.99-4,4.1-8.04,6.31-12.11.14-.26.28-.52.42-.78,1.64-3.02,3.34-6.05,5.09-9.11,1.87-3.28,3.8-6.57,5.79-9.89,2.12-3.55,4.31-7.13,6.55-10.72.15-.24.3-.48.45-.72,2.31-3.71,4.69-7.45,7.11-11.2.07-.12.15-.23.22-.35.01,0,.01-.01.01-.01l-11.87-14.98h0c-1.84-2.02-3.68-4.02-5.52-6.03-7.55-22.06-4.56-43.68,16.36-64.53,18.19-14.7,36.03-15.2,53.62-5.68,13.66,9.23,21.32,27.47,24.08,53.06,77.78-32.31,119.35-29.21,141.09-8.18,14.31,10.07,23.3,17.26,31.41,33.85Z"/>
  </g>
  <g id="Layer_7" data-name="Layer 7">
    <path class="cls-8" d="M719.34,272.43c14.31,10.07,23.3,17.26,31.41,33.85-1.36,21.51-2.73,43.01-4.09,64.52-8,19.71-17.37,37.85-29.61,52.7"/>
    <path id="path226" class="cls-8" d="M549.17,283.67c5,8.17,9.54,15.01,13.52,20.13,13.68,17.63,20.58,15.03,15.56-23.2-2.76-25.59-10.42-43.82-24.08-53.05-17.59-9.53-35.42-9.03-53.62,5.68-20.92,20.85-23.91,42.46-16.36,64.52,11.59,12.65,23.17,25.29,34.76,37.94.98-.68,1.97-1.36,2.95-2.04-8.1-8.41-16.21-16.81-24.31-25.22-2.65-3.22-2.73-5.19,0-4.54,11.28,4.96,21.37.21,31.13-7.27,6.95-6.71,13.8-11.7,20.45-12.95h0Z"/>
    <path id="path230" class="cls-8" d="M532.46,261.66c10.23-9.64,17.23-21.14,21.7-34.11"/>
    <path id="path234" class="cls-8" d="M495.54,276.77c-8.15-11.49-6.53-25.99,5-43.54"/>
    <path class="cls-8" d="M576.32,314v.02h0v.02c-1.21,23.09-2.42,46.17-3.63,69.26-15.47-15.5-32.7-28.05-51.8-37.49-25.68,28.04-37.11,61.09-19.77,104.28,8.11,14.31,4.31,23.71-8.18,29.54-5.91,3.64-11.8,6.28-17.58,6.28-.47,0-.93-.02-1.4-.05-.29-.02-.57-.05-.85-.09-.27-.03-.53-.07-.8-.12-.16-.02-.32-.05-.47-.09-.25-.04-.5-.1-.75-.16-.21-.05-.42-.1-.63-.17-.23-.06-.46-.13-.69-.21-.93-.3-1.86-.69-2.78-1.18-.18-.08-.35-.18-.52-.28-.13-.06-.25-.13-.38-.21-.15-.09-.3-.18-.45-.28-.24-.14-.48-.29-.71-.46-.19-.12-.38-.25-.57-.4-.04-.02-.08-.05-.12-.08-.91-.66-1.81-1.41-2.71-2.28-.28-.26-.56-.53-.83-.82-.22-.22-.43-.45-.64-.68-.21-.22-.41-.44-.6-.67-.21-.23-.42-.47-.62-.72-.17-.2-.34-.41-.5-.62-.19-.22-.36-.45-.53-.68-.28-.36-.56-.72-.82-1.1-1.31-1.79-2.59-3.83-3.87-6.13-.23-.41-.46-.83-.68-1.26-.14-.26-.28-.52-.42-.79-.13-.25-.26-.52-.41-.78"/>
    <path class="cls-8" d="M450.06,459.49c-.17-.85-.32-1.69-.46-2.55-.15-.92-.28-1.84-.39-2.78-.26-2.11-.42-4.25-.5-6.42,0-.09,0-.19,0-.28-.11-3.41,0-6.91.32-10.47v-.05c.35-4,.96-8.09,1.81-12.27.01-.06.02-.12.04-.18.68-3.36,1.51-6.78,2.49-10.25,0-.01,0-.02.02-.04,1.33-4.73,2.94-9.56,4.78-14.48.02-.06.05-.13.07-.2,1.61-4.28,3.4-8.63,5.35-13.04.02-.03.03-.06.04-.09,1.85-4.17,3.85-8.4,5.98-12.67l.03-.06c1.99-4,4.1-8.04,6.31-12.11l.42-.78c1.64-3.02,3.34-6.05,5.09-9.11,1.87-3.28,3.8-6.57,5.79-9.89,2.12-3.55,4.31-7.13,6.55-10.72l.45-.72c2.31-3.71,4.69-7.45,7.11-11.2.07-.12.15-.23.22-.35.01,0,.01,0,.01,0"/>
    <path id="path218" class="cls-8" d="M578.25,280.61c77.78-32.3,119.35-29.21,141.09-8.18,6,28.56-13.56,31.58-31.13,36.58-35.82-.91-71.64-1.82-107.46-2.73"/>
    <path class="cls-8" d="M536.82,567.88c-25.35,23.8-48.79,48.28-68.99,73.88,0,.01-.02,0-.02-.01,4.08-8.86.71-12.28-5.69-13.48-1.59-.29-3.36-.45-5.25-.52-4.28-.02-8.53-.1-12.74-.25-.65-.02-1.3-.05-1.94-.07-.8-.03-1.58-.07-2.37-.11-.66-.03-1.32-.06-1.98-.1-1.04-.05-2.08-.11-3.11-.18-1.04-.06-2.07-.13-3.1-.21-1.21-.09-2.41-.18-3.61-.29-.85-.07-1.69-.15-2.53-.23-1.9-.18-3.78-.38-5.65-.6-.71-.09-1.43-.18-2.14-.27-1.43-.18-2.84-.38-4.25-.59-1.72-.25-3.43-.53-5.12-.83-.47-.08-.94-.16-1.4-.25-.9-.16-1.78-.33-2.67-.5-3.9-.78-7.72-1.67-11.46-2.7-.7-.19-1.4-.39-2.1-.59-1-.29-1.99-.59-2.97-.91-.72-.22-1.43-.45-2.13-.69-.91-.29-1.82-.6-2.71-.93-.64-.23-1.27-.46-1.91-.7-.67-.25-1.33-.5-1.99-.77-.66-.26-1.32-.53-1.97-.8-.66-.27-1.31-.55-1.96-.84-.65-.28-1.29-.57-1.93-.87-.65-.29-1.29-.59-1.92-.9-.35-.15-.69-.32-1.03-.5-.47-.23-.94-.46-1.4-.71-.13-.06-.26-.12-.39-.2-.44-.22-.88-.45-1.32-.69-.82-.44-1.63-.89-2.44-1.35-.29-.42-.58-.83-.89-1.21-1.86-2.26-4.22-3.67-7.74-3.16-.53.08-.92-.48-.64-.94,2.18-3.64,4.38-7.25,6.62-10.85.67-1.08,1.35-2.16,2.03-3.24.58-.93,1.17-1.86,1.77-2.79.65-1.02,1.3-2.04,1.96-3.06.83-1.3,1.67-2.59,2.53-3.86.64-1.02,1.31-2.02,1.97-3.03.14-.21.28-.42.43-.63,1.03-1.58,2.09-3.16,3.17-4.74,2.55-3.8,5.16-7.57,7.8-11.33.79-1.12,1.58-2.23,2.38-3.34.6-.85,1.21-1.71,1.83-2.56.88-1.23,1.78-2.46,2.68-3.69,1.21-1.66,2.43-3.32,3.66-4.97.5-.67.99-1.34,1.5-2,.17-.23.34-.46.51-.68.97-1.3,1.95-2.6,2.94-3.89,1.21-1.59,2.44-3.18,3.67-4.76.32-.42.66-.84.98-1.26.84-1.1,1.7-2.18,2.56-3.26.44-.55.87-1.1,1.31-1.65.25-.32.51-.64.77-.96.84-1.06,1.68-2.11,2.53-3.16,1.6-1.98,3.21-3.95,4.84-5.92,1.41-1.71,2.83-3.41,4.27-5.11,0,0,0-.01.01-.02.56-.66,1.12-1.32,1.69-1.99,1-1.18,2.01-2.36,3.03-3.54,1.01-1.18,2.03-2.36,3.05-3.53,1.11-.36,2.22-.68,3.34-.97,6.08-1.58,12.31-2.2,18.64-2.2.78,0,1.56.01,2.34.03.7,0,1.4.04,2.11.07.36.01.72.03,1.08.05.47.02.94.05,1.41.08.31.02.62.04.93.07v.2s11.75,1.24,11.75,1.24l3.6.38s.04,0,.05.01c.03,0,.06,0,.08.01.72.11,1.43.22,2.15.34.66.11,1.33.22,1.99.33,2.14.35,4.28.73,6.42,1.1,2.3,1.19,4.43,2.36,6.41,3.54h.01c1.3.77,2.53,1.53,3.71,2.3.2.13.39.25.59.38.19.12.38.25.57.38.38.25.75.51,1.12.76s.73.5,1.08.76c.48.34.95.68,1.41,1.03.46.34.91.68,1.35,1.02.44.34.87.68,1.29,1.02,1.13.9,2.19,1.81,3.19,2.72.31.28.62.57.93.85,1.08,1,2.09,2.01,3.04,3.01.77.8,1.51,1.6,2.22,2.4.39.44.77.89,1.15,1.33.46.55.91,1.09,1.35,1.63.24.29.48.59.72.89.23.28.45.56.67.83.66.84,1.31,1.67,1.95,2.51h0c-.65.87-1.29,1.74-1.91,2.63-.06.09-.13.18-.19.27-.58.82-1.14,1.66-1.7,2.5-.1.16-.21.33-.32.5-.42.64-.83,1.29-1.24,1.95-.05.08-.09.15-.14.23-.11.17-.22.34-.33.52-.12.19-.23.38-.35.57-.44.73-.87,1.47-1.3,2.21,9.27,8.14,18.54,16.28,27.8,24.41Z"/>
    <path class="cls-8" d="M482.66,503.96l-9.48-1s-.05-.01-.08-.01c-.01-.01-.03-.01-.05-.01-.99-.16-1.99-.31-2.99-.45-.13-.02-.26-.04-.39-.06h-.01c-.83-.12-1.66-.23-2.49-.34-.84-.11-1.67-.21-2.5-.31-.59-.07-1.18-.14-1.76-.2-.49-.05-.97-.1-1.45-.15-.59-.06-1.18-.11-1.77-.16-.67-.06-1.33-.11-1.99-.15-.31-.03-.62-.05-.93-.07-.47-.03-.94-.06-1.41-.08-.36-.02-.72-.04-1.08-.05-.71-.03-1.41-.06-2.11-.07-.78-.02-1.56-.03-2.34-.03-6.33,0-12.56.62-18.64,2.2-1.12.29-2.23.61-3.34.97-1.67.53-3.32,1.15-4.95,1.84-3.57,1.53-7.08,3.45-10.51,5.86,6.02-19.49,18.79-36.72,37.43-52h0c.08-.07.16-.13.24-.2.17.85.36,1.69.56,2.52.14.59.3,1.18.46,1.77.13.48.26.95.41,1.43.03.09.06.19.09.28,0,.02.01.04.01.06.01.02.01.03.02.05.18.59.38,1.19.58,1.78.03.08.06.16.08.23.01.03.02.05.03.07.03.11.07.21.11.31.14.41.3.81.46,1.22.15.41.32.81.49,1.22.17.41.34.82.53,1.23.52,1.18,1.1,2.36,1.73,3.54.16.3.32.61.5.91.3.55.62,1.11.95,1.66v.02c.25.41.5.81.76,1.22.13.21.27.42.4.63.17.26.33.52.51.77.23.35.47.7.71,1.05.23.33.47.67.72,1.01.01.02.03.05.05.08.21.28.41.56.63.85.04.05.09.11.14.18.07.1.16.21.24.33.37.48.75.97,1.15,1.46.13.17.27.34.42.51.2.26.42.52.65.79.59.7,1.21,1.41,1.85,2.12.17.2.35.4.54.59.39.43.79.85,1.2,1.28.4.43.82.86,1.25,1.28.43.43.87.86,1.31,1.28.43.41.86.83,1.31,1.24.4.37.81.75,1.23,1.12.6.54,1.22,1.09,1.86,1.64.2.16.4.33.6.5.24.21.49.41.74.62.19.16.38.32.58.48.32.27.65.53.99.8.09.07.18.14.27.22.2.15.39.31.59.46,0,.01.01.01.01.01h.01c.24.2.49.39.74.59.22.17.44.34.66.51.09.06.18.13.27.2.81.61,1.64,1.23,2.49,1.84.23.17.47.34.71.51Z"/>
    <path id="path150" class="cls-8" d="M538.21,406.37c7.57,17.72,15.15,35.44,22.72,53.16-3.03,3.94-6.06,7.88-9.09,11.81,8.48,2.57,16.96,5.15,25.45,7.72,6.06,16.05,12.12,32.11,18.18,48.16-1.86.21-3.67.46-5.44.77-20.27,3.5-34.59,13.49-43.64,29.22"/>
    <path id="path178" class="cls-8" d="M627.16,394.43c-1.63,30.43-10.41,57.88-26.58,82.24"/>
    <path class="cls-8" d="M697.36,408.06c-34.07-22.07-63.48-36.77-50.66,15.45-10.97,22.67-21.1,35.62-22.91,44.48-1.45,7.16,2.54,11.64,15.92,16.42"/>
    <path id="path198" class="cls-8" d="M581.05,489.04c17.58,3.98,31.22-5.04,42.75-21.06"/>
    <path id="path238" class="cls-8" d="M549.17,283.67c3.23,7.63,7.93,14.92,13.74,21.95,4.72,6.25,2.82,13.47-.8,21.24-2.99,6.66-5.98,13.33-8.97,19.99-3.8,8.53-11.69,6.36-21.7-1.48-4.18-3.58-8.1-7.24-9.54-11.73"/>
    <path class="cls-8" d="M374.85,583.16c26.33-33.42,57.4-57.72,90.53-78.12"/>
    <path id="path182" class="cls-8" d="M656.69,328.77c-.3,12.42-.61,24.84-.91,37.26,24.97-8.53,45.46,3.68,64.07,24.54"/>
    <path id="path154" class="cls-8" d="M590.02,528l11.8,21.95"/>
    <path class="cls-8" d="M583.08,581.76l-11.77,21.65c-.34.63-.68,1.25-1.02,1.88-.53.98-1.06,1.96-1.6,2.94h0"/>
    <path class="cls-8" d="M583.24,623.77c.95.83,1.9,1.62,2.84,2.36.38.3.76.59,1.14.87.37.28.73.55,1.1.8.2.15.4.28.6.42.21.15.42.3.64.44h.01l.36.24c.39.26.78.5,1.17.74.05.04.11.07.16.1.27.16.54.31.8.47.04.02.09.05.13.07.24.14.48.27.73.4.1.06.21.12.32.17.07.04.14.08.22.12.07.04.15.08.23.12l.17.08"/>
    <path class="cls-8" d="M536.82,567.88c1.9,1.66,3.79,3.33,5.68,4.99,1.26,1.11,2.52,2.21,3.78,3.32.96,1.52,1.92,3.02,2.86,4.49,1.48,2.29,2.94,4.52,4.4,6.7.43.64.86,1.28,1.29,1.91.46.7.93,1.39,1.41,2.07.44.65.88,1.29,1.32,1.92.12.18.25.35.37.53.37.53.74,1.06,1.11,1.58.93,1.32,1.86,2.62,2.79,3.88.56.77,1.12,1.53,1.68,2.27.56.75,1.11,1.49,1.67,2.22.26.34.52.68.79,1.02.45.59.91,1.18,1.37,1.75.44.57.9,1.14,1.35,1.7h0s.01.01.01.01"/>
    <path class="cls-8" d="M516.5,532.09c.6-.8,1.21-1.6,1.85-2.38,5.97-7.54,12.89-14.14,20.8-19.76,1.31-.94,2.65-1.84,4.02-2.71h.01c3.4-2.2,6.96-4.21,10.7-6.05,4.14-2.05,8.48-3.87,13.05-5.48,1.28-.46,2.58-.89,3.89-1.31"/>
    <path class="cls-8" d="M718.72,409.65c-.56,4.62-1.11,9.24-1.67,13.85-1.87,15.53-3.74,31.06-5.6,46.58-13.62,12.1-24.56,20.99-33.02,26.88"/>
    <path class="cls-8" d="M678.5,448.73c-10.29,18.18-17.27,32.38-20.5,42.07"/>
    <path class="cls-8" d="M657.2,488.27l-1.06,2.12-35.51,70.84-2.37,4.73c-.23-.52-.47-1.04-.72-1.56-.26-.56-.53-1.12-.82-1.68-.28-.57-.58-1.14-.89-1.71-.3-.57-.62-1.14-.95-1.72-.33-.58-.67-1.16-1.02-1.75-.23-.38-.46-.76-.7-1.14-.13-.21-.26-.41-.39-.62-.16-.25-.32-.51-.5-.77-.17-.26-.33-.52-.51-.78-.05-.08-.1-.15-.15-.22-.17-.26-.35-.53-.53-.79-.18-.26-.36-.52-.54-.79-.47-.67-.95-1.34-1.45-2.02-.55-.01-1.09-.01-1.64-.02l32.26-65.98c5.83,1.29,11.66,2.58,17.49,3.86Z"/>
    <path id="path202" class="cls-8" d="M666.54,504.07c10.26,24.28,12.29,47.33,10.43,69.79"/>
    <path class="cls-8" d="M691.88,614.37c-.01-.15-.04-.31-.08-.47,0-.03-.01-.06-.02-.08-.04-.2-.1-.4-.17-.61-.08-.25-.18-.5-.29-.75-.05-.13-.11-.27-.18-.4-.19-.41-.42-.83-.69-1.28-.18-.3-.38-.6-.59-.92-.13-.18-.26-.37-.4-.57-.1-.14-.21-.29-.33-.44-.11-.15-.23-.3-.35-.46-2.59-3.26-5.3-6.26-8.16-9.02-.47-.45-.93-.89-1.41-1.32-.24-.22-.48-.44-.72-.66-.12-.11-.24-.23-.37-.33-.12-.11-.24-.22-.36-.32-.25-.22-.49-.44-.74-.64-.74-.64-1.49-1.26-2.24-1.86-.6-.48-1.2-.94-1.81-1.39-.02-.02-.04-.04-.07-.06-.4-.3-.8-.6-1.2-.88-.51-.37-1.02-.73-1.54-1.09-.02-.01-.03-.02-.05-.04-.52-.35-1.04-.69-1.57-1.03-.27-.17-.55-.35-.83-.52-.4-.25-.8-.5-1.21-.75-.56-.34-1.13-.67-1.71-1-.07-.04-.15-.09-.23-.13-.07-.04-.15-.09-.23-.13-.14-.08-.28-.15-.42-.23-1.19-.66-2.4-1.28-3.63-1.87-.02-.01-.04-.02-.05-.03-.27-.12-.54-.25-.81-.37-.71-.34-1.43-.66-2.16-.96-.31-.14-.62-.27-.93-.39-.8-.33-1.61-.65-2.43-.95-.29-.11-.58-.22-.87-.32-.73-.26-1.46-.51-2.2-.75-.45-.15-.89-.29-1.35-.42-1.21-.37-2.43-.71-3.67-1.02-.1-.03-.19-.05-.28-.07-.93-.23-1.86-.45-2.8-.64-.42-.09-.85-.18-1.28-.26-.08-.02-.16-.04-.25-.05-.28-.06-.57-.11-.86-.16-.17-.03-.34-.06-.5-.09-.62-.11-1.24-.21-1.87-.31-.69-.1-1.39-.2-2.09-.29-.07-.19-.14-.37-.23-.53-.08-.19-.18-.37-.28-.54-.05-.09-.11-.17-.17-.26-.05-.08-.11-.16-.17-.24-.08-.11-.17-.21-.27-.31-.06-.07-.12-.14-.19-.2-.12-.12-.26-.23-.4-.34-.01-.01-.03-.02-.04-.03-.13-.1-.26-.18-.4-.26-.08-.05-.16-.09-.24-.13-.08-.04-.17-.08-.25-.12-.05-.03-.11-.05-.17-.07-.11-.05-.23-.09-.36-.13-.04-.02-.09-.03-.14-.04-.09-.03-.18-.05-.28-.08h-.03c-.09-.02-.18-.04-.27-.06-.24-.04-.48-.07-.74-.09-.11,0-.21-.02-.33-.02-.11-.01-.22-.01-.34-.01-.28,0-.56.01-.86.04-.28.02-.58.06-.88.1-.27.04-.55.09-.84.15-.27.06-.55.12-.83.2-.39.09-.79.2-1.2.34-.18.05-.37.11-.55.17-.32.11-.64.22-.97.35-.34.12-.69.26-1.05.41-.49.2-.99.41-1.51.65-.09-.43-.19-.86-.29-1.3-.01-.05-.03-.11-.04-.17-.09-.38-.19-.77-.3-1.16-.09-.34-.18-.68-.29-1.02-.03-.11-.06-.22-.09-.33,0-.02-.01-.04-.02-.06-.04-.15-.09-.31-.14-.47-.06-.19-.12-.38-.19-.58-.04-.13-.08-.27-.13-.4-.13-.4-.26-.8-.42-1.21-.49-1.41-1.07-2.86-1.72-4.33l2.37-4.73,35.51-70.84,1.86.41c-2.58,7.7-2.8,12.56-.43,14.31,2.91,2.15,9.73-.4,20.86-8.15,12.92,36.19,12.87,76.91,13.45,117.41Z"/>
    <path class="cls-8" d="M427.85,503.99c-1.02,1.17-2.04,2.35-3.05,3.53-1.02,1.18-2.03,2.36-3.03,3.54-.57.67-1.13,1.33-1.69,1.99-.01.01-.01.02-.01.02-1.44,1.7-2.86,3.4-4.27,5.11-4.31,1.08-5.46-1.06-3.41-6.49,3.43-2.41,6.94-4.33,10.51-5.86,1.63-.69,3.28-1.31,4.95-1.84Z"/>
    <path class="cls-8" d="M614.52,600.67h-.01c-.12.06-.23.11-.35.16-.05.02-.1.04-.15.06-.12.05-.24.1-.37.15-.01,0-.03.02-.05.02-.03.01-.05.02-.08.03h-.01c-.17.07-.34.13-.52.19-.26.08-2.14.51-2.18.51,0,0-2.07.18-2.12.18,0,0-.67,0-.95-.01-.03.01-.06.01-.09,0-.64-.03-1.3-.09-1.97-.19-.91-.13-1.84-.33-2.81-.59-.04-.01-.07-.02-.1-.03-.5-.13-1-.29-1.51-.47-.03,0-.07-.02-.1-.03-.07-.02-.13-.04-.2-.07h-.01c-.43-.16-.87-.32-1.31-.51-.24-.1-.49-.2-.74-.31-.26-.11-.53-.23-.8-.36-.27-.12-.54-.25-.82-.39-.27-.13-.54-.27-.82-.42-.14-.07-.27-.14-.41-.22-.14-.07-.28-.15-.42-.23-.28-.15-.56-.31-.84-.47-2.18-2.97-4.36-5.93-6.54-8.89-1.72-2.34-3.44-4.68-5.16-7.02-3.9-5.3-7.8-10.6-11.7-15.9,5.77-5.23,11.55-10.45,17.32-15.68,6.25.07,12.51.14,18.75.21.55.01,1.09.01,1.64.02.5.68.98,1.35,1.45,2.02.18.27.36.53.54.79.18.26.36.53.53.79.05.07.1.14.15.22.18.26.34.52.51.78.18.26.34.52.5.77.13.21.26.41.39.62.24.38.47.76.7,1.14.35.59.69,1.17,1.02,1.75.33.58.65,1.15.95,1.72.31.57.61,1.14.89,1.71.29.56.56,1.12.82,1.68.25.52.49,1.04.72,1.56.65,1.47,1.23,2.92,1.72,4.33.15.41.29.81.42,1.21.05.13.09.27.13.4.07.2.13.39.19.58.05.16.1.32.14.47.01.02.02.04.02.06.03.11.06.22.09.33.11.34.2.68.29,1.02.11.39.21.78.3,1.16.01.06.03.12.04.17.1.44.2.87.29,1.3.05.27.11.53.15.79.06.3.11.6.16.89.1.6.18,1.18.25,1.76.07.57.13,1.14.17,1.7.53,7.12-1.23,12.77-4.74,16.19-.34.34-.7.66-1.08.95-.17.14-.36.27-.54.39-.02.02-.03.03-.05.04-.01.01-.03.02-.04.03-.03.02-.06.04-.1.06-.05.04-.1.07-.15.1-.15.1-.3.19-.46.28"/>
    <line class="cls-8" x1="595.25" y1="598.13" x2="581.4" y2="627.27"/>
    <path class="cls-8" d="M673.78,629.6c1.31,6.29.92,12.01-1.35,17.1-.93,2.09-2.18,4.08-3.76,5.96,4.5,8.16,4.21,18.65-.68,31.35,1.06,7.21-.46,13.39-5.46,18.18-8.78,19.61-17.57,39.23-26.35,58.84-1.51,3.01-2.55,5.99-2.93,8.94-.51,3.81.05,7.58,2.02,11.28,3.64,6.14,7.27,12.27,10.91,18.4,5.39,11.3,2.79,19.57-8.92,24.36-.35.14-.7.28-1.06.42-.35.13-.71.26-1.07.38-.37.13-.76.26-1.15.38-.4.13-.8.25-1.21.36-6.78.84-13.56,1.67-20.33,2.5-.83.1-1.66.21-2.49.31-.65.08-1.31.16-1.95.24-.16.02-.31.04-.47.06-.42.05-.84.1-1.26.15-.4.05-.81.1-1.22.15-1.78.23-3.42.27-4.89.09-4.65-.56-7.73-3.24-8.74-8.72.14-8.16-.28-16.23-2.27-24.08-.28-1.84-.54-3.67-.75-5.5-1.58-13.09-1.46-25.96.75-38.58,4.6-13.87,5.85-28.01,3.18-42.48-1.68-12.04-2.43-24.15-2.31-36.34.01-.81.02-1.63.04-2.45.02-1.26.05-2.53.09-3.81.03-.8.06-1.61.1-2.42.03-.95.08-1.9.13-2.85.05-.89.1-1.79.16-2.68.06-1,.13-1.99.2-2.99.06-.88.13-1.76.21-2.64.06-.76.13-1.53.2-2.29.04-.52.09-1.03.14-1.54.06-.59.12-1.18.18-1.76.31-3.01.67-6.03,1.08-9.05.11-.82.22-1.65.34-2.47.12-.89.25-1.77.39-2.66.13-.88.27-1.77.41-2.65l.17.08c.2.11.4.21.61.3.4.19.81.37,1.21.54h.01c.36.16.73.3,1.09.44.27.1.54.2.81.29.09.03.18.06.27.09.29.1.58.19.87.26.11.04.22.07.33.1.31.08.61.16.92.22.03.02.06.02.09.02.15.04.31.08.46.1.07.02.15.03.22.04.04.01.08.02.12.02.12.03.23.05.35.07.02,0,.05,0,.07,0,.17.03.33.05.5.07.08.01.16.03.24.03.11.02.23.03.34.04.05.01.09.01.13.01.12.02.24.03.36.03.08,0,.16.02.24.02.05.01.1.01.14.01s.08.01.12,0c.28.02.55.03.82.03s.56,0,.84-.02c.12,0,.23-.01.35-.02h.01c.21-.01.42-.03.62-.05.24-.02.47-.05.69-.09.13-.01.26-.03.39-.06.38-.06.75-.13,1.12-.23.18-.04.35-.08.52-.13.44-.12.86-.26,1.29-.41.32-.11.63-.24.94-.38.14-.05.29-.12.43-.19.04-.01.08-.03.12-.05.08-.04.17-.08.25-.12.1-.05.19-.1.29-.15.39-.19.78-.41,1.16-.64.23-.13.45-.28.68-.43.1-.06.21-.13.31-.21.11-.07.23-.15.34-.23.08-.06.16-.12.24-.18.96-.69,1.91-1.5,2.84-2.42.06-.06.13-.12.19-.19.15-.14.29-.29.44-.44.02-.03.05-.06.07-.08.19-.2.38-.4.57-.61.12-.14.25-.28.38-.43.12-.14.25-.29.38-.45.15-.17.3-.35.45-.54.36-.45.73-.92,1.09-1.41.04-.05.08-.1.12-.16.22-.3.45-.62.67-.94.13-.18.26-.37.39-.57.13-.19.26-.39.39-.59.03-.04.05-.07.07-.11.11-.16.22-.33.32-.5.16-.25.32-.51.48-.77,1.19-1.94,2.34-4.11,3.47-6.5.19-.39.37-.79.55-1.2.18-.4.36-.8.54-1.21,0-.01.01-.02.01-.02.03-.08.07-.15.1-.23.24-.55.48-1.12.71-1.7.09-.22.18-.44.27-.66.07-.15.13-.31.19-.47.05-.12.1-.24.14-.36.1-.24.19-.47.28-.72.15-.39.3-.78.45-1.18.22-.57.43-1.15.64-1.74.11-.32.23-.64.34-.97.02-.06.04-.12.07-.19.1-.3.21-.61.32-.92.01-.03.02-.07.03-.1.14-.41.27-.82.41-1.24s.28-.84.41-1.27c.14-.42.28-.86.41-1.3.14-.43.27-.87.41-1.31.01-.03.02-.07.03-.11.19-.63.38-1.27.57-1.92.06-.23.13-.46.2-.69.39-1.38.78-2.81,1.17-4.28.09-.38.18-.76.26-1.12.16-.74.3-1.44.42-2.13h0c.11-.69.21-1.35.28-1.97.14-1.21.19-2.31.15-3.3-.01-.15-.02-.3-.03-.45,0-.18-.01-.35-.04-.51,0-.03-.01-.05-.01-.08-.03-.22-.05-.43-.09-.64,0-.03-.01-.06-.01-.09-.01-.07-.02-.13-.04-.19-.01-.1-.03-.19-.06-.28-.02-.1-.04-.19-.06-.28-.02-.08-.04-.16-.06-.24-.02-.06-.04-.11-.06-.17l-.06-.18s-.03-.1-.05-.15c.7.09,1.4.19,2.09.29.63.1,1.25.2,1.87.31.16.03.33.06.5.09.29.05.58.1.86.16.09.01.17.03.25.05.43.08.86.17,1.28.26.94.19,1.87.41,2.8.64.09.02.18.04.28.07,1.24.31,2.46.65,3.67,1.02.46.13.9.27,1.35.42.74.24,1.47.49,2.2.75.29.1.58.21.87.32.82.3,1.63.62,2.43.95.31.12.62.25.93.39.73.31,1.45.63,2.16.96.26.12.53.24.79.37.02.01.05.02.07.03,1.23.59,2.44,1.21,3.63,1.87.17.09.33.18.49.28.06.02.11.05.16.08.08.04.16.09.23.13.58.33,1.15.66,1.71,1,.41.25.81.5,1.21.75.28.17.56.35.83.52,1.07.69,2.12,1.41,3.16,2.16.41.29.81.59,1.2.88.03.02.05.04.07.06.61.46,1.21.92,1.81,1.39.75.6,1.5,1.22,2.24,1.86.25.21.49.42.74.64.12.1.24.21.36.32.13.11.25.22.37.33.24.22.48.44.72.66.48.43.94.87,1.41,1.32,5.28,13.04,1.25,22.43-6.84,30.23Z"/>
    <path class="cls-8" d="M583.23,623.77l-67.91,129.45c-10.41,19.85-20.83,39.69-31.23,59.54-2.66,5.05-5.31,10.11-7.96,15.16-3.82,7.22-7.85,12.6-12.27,16.54-.42.38-.84.74-1.27,1.09-.21.17-.43.34-.64.51-.43.33-.87.66-1.31.97-.66.47-1.32.91-2,1.32-.45.27-.9.54-1.36.79-.23.13-.46.25-.69.37-27.04,10.52-54.07,21.05-81.11,31.58-2.89,1.13-5.52,1.59-7.85,1.3-3.91-.44-7.02-2.92-9.19-7.66-3.41-9.09-6.81-18.18-10.22-27.27-1.11-2.36-.6-4.33,1.37-5.94.48-.39,1.05-.76,1.7-1.11.22-.12.45-.23.68-.35.48-.22.99-.43,1.54-.64.54-.21,1.13-.4,1.75-.59,28.02-6.29,56.04-12.57,84.06-18.86,7-1.55,12.69-3.74,16.56-6.8,1.04-.82,1.94-1.71,2.7-2.66.26-.32.5-.65.73-.99,8.63-15.88,17.26-31.75,25.88-47.63.01-.02.03-.05.04-.07,22.77-41.88,45.51-83.76,68.28-125.64,5.06-9.31,10.12-18.63,15.18-27.94.26.32.52.64.78.95.04.05.08.11.13.16.01,0,.02.02.03.03.06.09.13.17.2.26.13.15.26.31.39.46.11.14.22.27.33.41.18.21.36.43.54.64.38.44.75.88,1.12,1.31.06.07.12.15.19.22.3.35.61.71.92,1.06.28.32.56.63.83.95.33.35.65.7.96,1.05.25.27.5.54.75.81.07.08.14.15.2.22.05.05.09.1.14.15.39.41.77.81,1.15,1.2.32.34.64.67.96.99.15.16.31.32.46.47h.01l.78.78c.49.48.98.95,1.47,1.4.14.14.29.27.43.41.48.45.96.88,1.44,1.3.11.11.22.2.33.3Z"/>
    <path class="cls-10" d="M555.53,859.86c-13.34,14.29-30.15,19.36-50.05,16.28-1.99-.31-4.02-.7-6.07-1.17l-3.18-10.68s.07.04.11.05c.05.03.1.05.15.07.76.4,1.55.76,2.35,1.09.44.18.87.34,1.32.49.26.1.53.19.8.26.27.1.54.18.82.25.39.12.79.23,1.19.32.11.04.23.06.34.09,5.34,1.26,11.24,1.29,17.07.35.54-.09,1.07-.18,1.6-.28,2.92-.57,5.8-1.37,8.57-2.38.5-.19,1-.38,1.49-.58,2.23-.89,4.37-1.91,6.37-3.06.45-.25.89-.51,1.32-.78.21-.13.43-.27.64-.4.43-.27.84-.55,1.25-.83,1.03-.71,2-1.45,2.92-2.22.37-.31.73-.62,1.07-.94,3.14-2.86,5.5-6.1,6.74-9.58.06.01.11.01.15.02h.04s.06,0,.09,0c.22.04.42.08.63.12.6,3.56,1.2,7.11,1.79,10.67.16.94.32,1.89.48,2.83Z"/>
    <path class="cls-8" d="M552.91,844.3c-.15.64-.33,1.28-.56,1.9h0c-1.24,3.49-3.6,6.73-6.74,9.59-.34.32-.7.63-1.07.94-.92.77-1.89,1.51-2.92,2.22-.41.28-.82.55-1.25.83-.21.13-.43.27-.64.4-.43.27-.87.53-1.32.78-2,1.15-4.14,2.17-6.37,3.06-.49.2-.99.39-1.49.58-2.77,1.01-5.65,1.81-8.57,2.38-.53.1-1.06.19-1.6.28-5.83.94-11.73.91-17.07-.35-.22-.05-.46-.12-.71-.19-2.21-.57-4.31-1.35-6.26-2.38-.04-.01-.07-.03-.11-.05.51-3.88,2.26-7.31,4.89-10.25.31-.35.63-.69.97-1.02,11.07-11.02,34.96-14.56,50.82-8.72Z"/>
    <path class="cls-8" d="M254.18,837.36c-7.93,4.22-15.85,8.43-23.78,12.64-.92.49-1.84.98-2.76,1.47-2.51,1.08-4.26,1.25-4.9.1-.12-.22-.21-.48-.25-.79-.1-.79.05-1.89.5-3.34,3.33-8.05,6.66-16.1,9.99-24.15.25.21.49.42.74.63.76.64,1.53,1.26,2.31,1.88,1.1.86,2.21,1.7,3.34,2.51,1.29.93,2.6,1.82,3.93,2.69,1.66,1.08,3.36,2.13,5.09,3.14,1.72,1,3.46,1.96,5.23,2.89.01.01.02.01.03.02t.02.01c.17.11.34.21.51.3Z"/>
    <path class="cls-8" d="M363.74,607.91c-.38.24-.74.49-1.08.74-5.77,4.2-6.33,9.7-4.72,15.74-2.2.54-4.09,1.46-5.59,2.85-1.34,1.23-2.37,2.83-3.05,4.88-9.27,5.45-14.2,12.87-16.81,21.35-4.47-2.45-8.09-2.12-10.18,3.17-.75,1.9-1.31,4.45-1.63,7.74-6.55,5.6-12.28,12.69-17.44,20.8h0c-12.43,19.56-21.55,45.06-30.95,70.05-.61,1.6-1.21,3.2-1.82,4.8-14.55,11.81-29.09,23.62-43.63,35.44-1.57,2.47-.69,4.34,1.37,5.91.15,5.98.3,11.96.45,17.94,1.4,1.38,2.84,2.7,4.32,3.97l15.41,10.85c1.72.99,3.46,1.96,5.23,2.89.01,0,.02,0,.03.01.26.07.52.13.77.19.08.02.15.03.23.05.33.08.66.15.98.21s.64.12.96.17c6.78,1.13,12.09-.23,16.31-3.46.54-.42,1.06-.86,1.56-1.33,0-.01.01,0,.01,0,.75-.72,1.46-1.49,2.15-2.32.45-.56.89-1.15,1.32-1.76.42-.61.83-1.25,1.23-1.91,2.17-3.65,3.92-8.06,5.38-13.01,7.21-14.16,16.12-26.14,29.99-31.81.98-.46,1.95-.94,2.91-1.43h0c16.75-8.57,30.35-21.43,41.16-38.1,9.03-9.77,18.5-18.02,28.4-24.78.36-.25.72-.49,1.09-.73h0c1.2-.81,2.41-1.6,3.62-2.36,1.59-.99,3.18-1.95,4.79-2.87,2.14-1.22,4.29-2.38,6.47-3.48,1.09-.54,2.18-1.07,3.28-1.59.55-.26,1.1-.51,1.65-.76,2.57-1.11,5.04-2.27,7.43-3.48,1.43-.72,2.83-1.46,4.2-2.22.46-.25.91-.5,1.36-.76,1.17-.66,2.31-1.34,3.43-2.04.17-.1.34-.2.5-.31.86-.53,1.7-1.08,2.53-1.63.38-.25.75-.5,1.12-.75.15-.1.29-.2.43-.3.7-.49,1.39-.98,2.07-1.48.78-.57,1.55-1.15,2.3-1.74.38-.29.75-.58,1.12-.89.26-.2.53-.42.79-.64s.53-.44.79-.67c1.99-1.67,3.87-3.41,5.64-5.22.32-.32.64-.65.94-.98.32-.33.63-.66.93-.99.31-.33.61-.67.9-1,.3-.34.59-.67.87-1.01.3-.34.58-.69.86-1.03.51-.62,1.01-1.24,1.49-1.87,1.17-1.53,2.27-3.09,3.3-4.7.42-.64.82-1.3,1.21-1.96.27-.44.53-.88.77-1.33.2-.34.39-.68.57-1.02.22-.38.42-.77.62-1.16.2-.38.39-.76.58-1.14.21-.42.42-.85.62-1.29l.3-.63c.07-.15.14-.3.2-.46.55-1.21,1.06-2.45,1.54-3.71.3-.8.59-1.6.86-2.41.15-.41.28-.83.41-1.25.14-.42.27-.85.39-1.27.26-.85.49-1.71.71-2.58.44-1.67.81-3.38,1.13-5.11.01-.06.03-.12.03-.18.33-1.79.59-3.62.79-5.47.06-.46.11-.91.14-1.38v-.02c.07-.66.13-1.33.17-2,.01-.02.01-.04,0-.06.15-2.04.22-4.11.22-6.22,0-.54-.01-1.09-.02-1.63-.01-.57-.02-1.13-.04-1.7"/>
    <path class="cls-8" d="M635.63,824.64c-.18,1.78-.36,3.56-.55,5.34-.88,8.64-1.76,17.3-2.65,25.95l-.09.83c-.02.18-.04.34-.08.5-.03.16-.06.3-.11.44-.06.17-.13.32-.22.44-.4.51-1.14.37-2.57-1.12-.13-.14-.27-.29-.42-.46-5.9-7.88-11.81-15.77-17.71-23.65-1.08-1.44-2.15-2.87-3.23-4.31.64-.08,1.3-.16,1.95-.24.83-.1,1.66-.21,2.49-.31l20.33-2.49c.41-.12.81-.24,1.21-.37.39-.12.78-.25,1.15-.38l.5-.17Z"/>
    <path id="path302" class="cls-8" d="M252.85,787.45c20.02,4.66,31.74,11.43,27.83,22.15"/>
    <path id="path306" class="cls-8" d="M271.26,774.28c11.12-3.59,16.94,4.76,19.88,19.65"/>
    <path id="path310" class="cls-8" d="M281.83,764.51c16.76-1.41,27.25,3.23,26.13,19.08"/>
    <path id="path318" class="cls-8" d="M412.9,675.21c-25.22-11-44.89-26.79-54.97-50.82"/>
    <path id="path322" class="cls-8" d="M404.73,682.82c-22.2-13.45-41.41-29.68-55.42-50.7"/>
    <path id="path326" class="cls-8" d="M396.43,704.06c-30.14-9.7-54.72-23.91-63.94-50.59"/>
    <path id="path330" class="cls-8" d="M371.44,716.45c-27.12-11.97-45.46-28.58-50.77-52.07"/>
    <path class="cls-8" d="M691.88,614.37c.36,3.12-2.98,3.68-9,.15"/>
    <path id="path282" class="cls-8" d="M592.88,636.4c31.83,10.42,55.54,8.83,71.01-4.98"/>
    <path id="path342" class="cls-8" d="M461.79,639.88c.85,5.29,2.85,5.91,5.98,1.96"/>
    <path id="path258" class="cls-8" d="M604.03,797.27c7.46-2.83,15.15-3.34,23.06-1.7"/>
    <path id="path262" class="cls-8" d="M601.64,782.61c9.16-3.25,16.93-3.45,22.61,1.02"/>
    <path id="path266" class="cls-8" d="M598.91,761.37c12.72,3.94,23.33,1.82,31.81-6.36"/>
    <path id="path270" class="cls-8" d="M601.19,712.3c31.91,4.27,51.25.16,61.35-10.11"/>
    <path id="path274" class="cls-8" d="M601.64,673.22c28.11,5.71,49.21-3.84,67.03-20.56"/>
    <path id="path278" class="cls-8" d="M615.27,653.23c18.65,4.47,34.97,2.19,48.16-9.09"/>
  </g>
</svg>